<?xml version="1.0" encoding="utf-8"?>
<!-- Generator: Adobe Illustrator 27.5.0, SVG Export Plug-In . SVG Version: 6.00 Build 0)  -->
<svg version="1.1" xmlns="http://www.w3.org/2000/svg" xmlns:xlink="http://www.w3.org/1999/xlink" x="0px" y="0px"
	 viewBox="0 0 500 500" style="enable-background:new 0 0 500 500;" xml:space="preserve">
<g id="Floor">
	<ellipse id="Floor_3_" style="fill:#F5F5F5;" cx="249.99" cy="341.306" rx="239.66" ry="138.368"/>
</g>
<g id="Shadows">
	<path id="Shadow_19_" style="fill:#E0E0E0;" d="M418.915,360.087l51.549-29.762c6.234-3.599,6.234-9.435,0-13.035l-86.848-50.142
		c-6.234-3.599-16.342-3.599-22.577,0l-51.549,29.762c-6.234,3.599-6.234,9.435,0,13.035l86.848,50.142
		C402.573,363.687,412.68,363.687,418.915,360.087z"/>
	<ellipse id="Shadow_17_" style="fill:#E0E0E0;" cx="281.559" cy="427.591" rx="52.891" ry="30.537"/>
	<path id="Shadow_7_" style="fill:#E0E0E0;" d="M88.317,415.657l-61.738-35.681c-2.329-1.345-2.329-3.525,0-4.87l130.918-75.595
		c2.329-1.345,6.106-1.345,8.435,0l61.738,35.681c2.329,1.345,2.329,3.525,0,4.87L96.752,415.657
		C94.423,417.002,90.646,417.002,88.317,415.657z"/>
</g>
<g id="Clouds">
	<g id="Clouds_5_">
		<g id="XMLID_1244_">
			<path id="XMLID_1245_" style="fill:#EBEBEB;" d="M345.865,76.654l6.002,3.465c-0.03-0.268-0.051-0.534-0.051-0.795v-1.739
				c0-3.094,2.172-4.349,4.852-2.801c1.085,0.627,2.084,1.619,2.892,2.781c0.439-3.891,3.492-5.34,7.199-3.2
				c4.009,2.315,7.259,7.944,7.259,12.573v2.601c0,1.199-0.222,2.209-0.615,3.014l4.985,2.878c1.486,0.858,2.691,2.945,2.691,4.662
				c0,1.716-1.205,2.412-2.691,1.554l-32.524-18.778c-1.486-0.858-2.691-2.945-2.691-4.662
				C343.173,76.492,344.378,75.796,345.865,76.654z"/>
		</g>
		<g id="XMLID_1241_">
			<path id="XMLID_1243_" style="fill:#EBEBEB;" d="M385.54,60.712l3.311,1.273v-7.293c0-5.782,4.612-7.168,9.619-4.277l0,0
				c5.007,2.891,9.066,9.922,9.066,15.703v1.059c1.136-0.453,2.603-0.278,4.207,0.649l0,0c3.603,2.08,6.524,7.14,6.524,11.3v0.481
				l4.616,2.665c2.373,1.37,4.297,4.702,4.297,7.442s-1.924,3.851-4.297,2.48L385.54,70.634c-2.373-1.37-4.297-4.702-4.297-7.442
				S383.167,59.342,385.54,60.712z"/>
		</g>
	</g>
</g>
<g id="Plants">
	<g id="Plants_13_">
		<g id="XMLID_471_">
			<g id="XMLID_526_">
				<path id="XMLID_527_" style="fill:#27DEBF;" d="M82.077,358.032c0,0,5.05-25.624-1.151-48.727
					c-6.201-23.103-19.295-40.456-34.669-46.716c-15.374-6.261-32.725,4.2-19.018,19.528c13.707,15.328,40.455,35.027,42.405,76.68
					L82.077,358.032z"/>
			</g>
			<g id="XMLID_522_" style="opacity:0.15;">
				<path id="XMLID_523_" d="M82.077,358.032c0,0,5.05-25.624-1.151-48.727c-6.201-23.103-19.295-40.456-34.669-46.716
					c-15.374-6.261-32.725,4.2-19.018,19.528c13.707,15.328,40.455,35.027,42.405,76.68L82.077,358.032z"/>
			</g>
			<g id="XMLID_515_">
				<path id="XMLID_518_" style="fill:#FFFFFF;" d="M79.495,350.14c0.06,0.008,0.121,0.01,0.182,0.004
					c0.487-0.037,0.851-0.463,0.812-0.95c-3.613-46.278-29.856-73.464-43.229-81.374c-0.417-0.251-0.961-0.108-1.211,0.311
					c-0.248,0.421-0.11,0.962,0.311,1.211c13.099,7.748,38.81,34.438,42.368,79.99C78.76,349.757,79.089,350.088,79.495,350.14z"/>
			</g>
		</g>
		<g id="XMLID_455_">
			<g id="XMLID_465_">
				<g id="XMLID_469_">
					<path id="XMLID_470_" style="fill:#27DEBF;" d="M20.106,329.575c0.311,2.216,1.643,4.455,3.163,6.022
						c2.17,2.238,4.895,3.902,6.943,6.253c0.501,0.576,0.971,1.215,1.136,1.961c0.45,2.036-1.414,3.742-2.598,5.459
						c-2.56,3.716-1.887,9.297,1.483,12.297c3.326,2.96,8.17,3.17,12.538,4.03c3.282,0.646,6.442,2.487,8.355,5.288
						c2.215,3.242,2.092,7.585,3.16,11.241c1.518,5.185,5.581,9.441,10.505,11.573c2.844,1.231,6.171,1.976,9.257,2.154
						c2.314,0.134,4.77-0.105,6.671-1.432c3.447-2.407,3.813-7.278,3.847-11.482c0.051-6.314,0.103-12.628,0.154-18.943
						c0.035-4.251,0.04-8.612-1.047-12.754c-0.712-2.714-2.324-4.902-3.216-7.444c-1.444-4.114-1.379-9.608-5.511-12.117
						c-5.859-3.559-13.618-1.597-19.978-4.153c-2.159-0.868-4.077-2.228-6.08-3.413c-4.655-2.754-9.987-4.609-15.39-4.367
						c-4.399,0.197-8.872,1.922-11.965,5.115C20.224,326.217,19.87,327.889,20.106,329.575z"/>
				</g>
			</g>
			<g id="XMLID_463_">
				<path id="XMLID_464_" style="fill:#FFFFFF;" d="M80.524,389.039c0.018,0.002,0.037,0.002,0.055,0.003
					c0.372,0.005,0.679-0.294,0.683-0.667c0.553-42.487-39.496-59.884-49.439-61.914c-0.361-0.07-0.721,0.161-0.798,0.527
					c-0.075,0.365,0.161,0.723,0.527,0.798c9.725,1.986,48.899,19.003,48.359,60.573C79.907,388.713,80.177,389.007,80.524,389.039z
					"/>
			</g>
			<g id="XMLID_460_">
				<path id="XMLID_462_" style="fill:#FFFFFF;" d="M38.366,351.945c0.125,0.012,0.255-0.014,0.373-0.081
					c0.127-0.072,12.921-7.142,28.858-0.032c0.322,0.139,0.699,0,0.843-0.322s-0.002-0.699-0.322-0.843
					c-16.554-7.381-29.875,0.013-30.008,0.088c-0.306,0.174-0.412,0.563-0.239,0.869C37.977,351.812,38.165,351.926,38.366,351.945z
					"/>
			</g>
		</g>
	</g>
</g>
<g id="Shopping_Cart">
	<g id="Shopping_cart">
		<g>
			<g>
				<path id="XMLID_1043_" style="fill:#455A64;" d="M403.929,343.287c-0.227-4.02-3.325-8.748-6.92-10.562
					c-1.887-0.952-3.527-0.901-4.635-0.066l0,0l-4.114,2.667l9.908,14.851l4.077-2.662l-0.007-0.01
					C403.384,346.798,404.045,345.338,403.929,343.287z"/>
				<path id="XMLID_1101_" style="fill:#37474F;" d="M392.741,335.517c3.595,1.813,6.692,6.542,6.919,10.562
					c0.227,4.02-2.503,5.808-6.098,3.995c-3.595-1.813-6.692-6.542-6.919-10.562C386.416,335.492,389.146,333.704,392.741,335.517z"
					/>
				<path id="XMLID_1099_" style="fill:#263238;" d="M390.948,341.684c-0.089-1.571,0.826-2.348,2.043-1.734
					c1.217,0.614,2.275,2.385,2.364,3.957c0.089,1.571-0.826,2.348-2.043,1.733C392.095,345.027,391.037,343.255,390.948,341.684z"
					/>
				<path id="XMLID_1042_" style="fill:#27DEBF;" d="M399.75,328.393c0,0,0.403,7.193-2.882,9.931
					c-0.619,0.516-1.287,0.887-1.672,1.246c-0.834,0.777-0.179,2.083,0.916,2.593c1.592,0.741,9.881-1.974,13.061-9.016
					L399.75,328.393z"/>
				<path id="XMLID_1046_" style="opacity:0.6;" d="M399.75,328.393c0,0,0.403,7.193-2.882,9.931
					c-0.619,0.516-1.287,0.887-1.672,1.246c-0.834,0.777-0.179,2.083,0.916,2.593c1.592,0.741,9.881-1.974,13.061-9.016
					L399.75,328.393z"/>
				<path id="XMLID_1041_" style="fill:#27DEBF;" d="M396.589,330.453c0,0,0.403,7.193-2.882,9.931
					c-0.619,0.516-1.287,0.887-1.672,1.246c-0.833,0.777-0.179,2.083,0.916,2.593c1.592,0.741,9.881-1.974,13.061-9.016
					L396.589,330.453z"/>
				<path id="XMLID_637_" style="opacity:0.4;" d="M396.589,330.453c0,0,0.403,7.193-2.882,9.931
					c-0.619,0.516-1.287,0.887-1.672,1.246c-0.833,0.777-0.179,2.083,0.916,2.593c1.592,0.741,9.881-1.974,13.061-9.016
					L396.589,330.453z"/>
				<path id="XMLID_1040_" style="fill:#263238;" d="M393.112,342.097c0.345,0.174,0.642,0.628,0.664,1.013
					c0.022,0.386-0.24,0.557-0.585,0.383c-0.345-0.174-0.642-0.628-0.664-1.013C392.505,342.095,392.767,341.923,393.112,342.097z"
					/>
			</g>
			<g>
				<path id="XMLID_1039_" style="fill:#455A64;" d="M448.758,313.389c-0.227-4.02-3.325-8.748-6.919-10.561
					c-1.887-0.952-3.527-0.901-4.635-0.066l0,0l-4.114,2.667l9.908,14.851l4.077-2.662l-0.007-0.01
					C448.213,316.9,448.874,315.44,448.758,313.389z"/>
				<path id="XMLID_1038_" style="fill:#37474F;" d="M437.569,305.619c3.595,1.813,6.692,6.542,6.919,10.562
					c0.227,4.02-2.503,5.808-6.098,3.995c-3.595-1.813-6.692-6.542-6.919-10.562C431.245,305.594,433.975,303.806,437.569,305.619z"
					/>
				<path id="XMLID_1037_" style="fill:#263238;" d="M435.777,311.786c-0.089-1.571,0.826-2.348,2.043-1.734
					c1.217,0.614,2.275,2.386,2.364,3.957c0.089,1.571-0.826,2.348-2.043,1.734C436.924,315.129,435.866,313.357,435.777,311.786z"
					/>
				<path id="XMLID_1036_" style="fill:#27DEBF;" d="M444.06,299.548c0,0,0.922,6.14-2.363,8.878
					c-0.619,0.516-1.287,0.887-1.672,1.246c-0.833,0.777-0.179,2.083,0.916,2.593c1.592,0.741,9.362-0.921,12.541-7.963
					L444.06,299.548z"/>
				<path id="XMLID_1044_" style="opacity:0.6;" d="M444.06,299.548c0,0,0.922,6.14-2.363,8.878
					c-0.619,0.516-1.287,0.887-1.672,1.246c-0.833,0.777-0.179,2.083,0.916,2.593c1.592,0.741,9.362-0.921,12.541-7.963
					L444.06,299.548z"/>
				<path id="XMLID_1035_" style="fill:#27DEBF;" d="M441.418,300.556c0,0,0.403,7.193-2.882,9.931
					c-0.619,0.516-1.287,0.887-1.672,1.246c-0.833,0.777-0.179,2.083,0.916,2.593c1.592,0.741,9.881-1.974,13.061-9.016
					L441.418,300.556z"/>
				<path id="XMLID_632_" style="opacity:0.4;" d="M441.418,300.556c0,0,0.403,7.193-2.882,9.931
					c-0.619,0.516-1.287,0.887-1.672,1.246c-0.833,0.777-0.179,2.083,0.916,2.593c1.592,0.741,9.881-1.974,13.061-9.016
					L441.418,300.556z"/>
				<path id="XMLID_1034_" style="fill:#263238;" d="M437.941,312.199c0.345,0.174,0.642,0.628,0.664,1.013
					c0.022,0.386-0.24,0.557-0.585,0.383c-0.345-0.174-0.642-0.628-0.664-1.013C437.334,312.197,437.596,312.025,437.941,312.199z"
					/>
			</g>
			<g>
				<path id="XMLID_1033_" style="fill:#455A64;" d="M359.613,321.196c-0.227-4.02-3.325-8.748-6.92-10.562
					c-1.887-0.952-3.527-0.901-4.635-0.066l0,0l-4.114,2.667l9.908,14.851l4.077-2.662l-0.007-0.01
					C359.068,324.707,359.729,323.247,359.613,321.196z"/>
				<path id="XMLID_1032_" style="fill:#37474F;" d="M348.424,313.426c3.595,1.814,6.692,6.542,6.919,10.562
					c0.227,4.02-2.503,5.808-6.098,3.995c-3.595-1.814-6.692-6.542-6.919-10.562C342.099,313.401,344.83,311.613,348.424,313.426z"
					/>
				<path id="XMLID_1031_" style="fill:#263238;" d="M346.632,319.593c-0.089-1.571,0.826-2.348,2.043-1.734
					c1.217,0.614,2.275,2.385,2.364,3.957c0.089,1.571-0.826,2.348-2.043,1.734C347.779,322.936,346.72,321.164,346.632,319.593z"/>
				<path id="XMLID_1022_" style="fill:#27DEBF;" d="M355.434,306.302c0,0,0.403,7.193-2.882,9.931
					c-0.619,0.516-1.287,0.887-1.672,1.246c-0.834,0.777-0.179,2.083,0.916,2.593c1.592,0.741,9.881-1.974,13.061-9.016
					L355.434,306.302z"/>
				<path id="XMLID_1047_" style="opacity:0.6;" d="M355.434,306.302c0,0,0.403,7.193-2.882,9.931
					c-0.619,0.516-1.287,0.887-1.672,1.246c-0.834,0.777-0.179,2.083,0.916,2.593c1.592,0.741,9.881-1.974,13.061-9.016
					L355.434,306.302z"/>
				<path id="XMLID_1012_" style="fill:#27DEBF;" d="M352.273,308.363c0,0,0.403,7.193-2.882,9.931
					c-0.619,0.516-1.287,0.887-1.672,1.246c-0.834,0.777-0.179,2.083,0.916,2.593c1.592,0.741,9.881-1.975,13.06-9.016
					L352.273,308.363z"/>
				<path id="XMLID_662_" style="opacity:0.4;" d="M352.273,308.363c0,0,0.403,7.193-2.882,9.931
					c-0.619,0.516-1.287,0.887-1.672,1.246c-0.834,0.777-0.179,2.083,0.916,2.593c1.592,0.741,9.881-1.975,13.06-9.016
					L352.273,308.363z"/>
				<path id="XMLID_1002_" style="fill:#263238;" d="M348.796,320.006c0.345,0.174,0.642,0.628,0.664,1.014
					c0.022,0.386-0.24,0.557-0.585,0.383c-0.345-0.174-0.642-0.628-0.664-1.014C348.189,320.004,348.451,319.832,348.796,320.006z"
					/>
			</g>
			<g>
				<path id="XMLID_1001_" style="fill:#455A64;" d="M406.231,290.66c-0.227-4.02-3.325-8.748-6.919-10.562
					c-1.887-0.952-3.527-0.901-4.635-0.066l0,0l-4.114,2.667l9.908,14.851l4.077-2.662l-0.007-0.01
					C405.686,294.171,406.347,292.711,406.231,290.66z"/>
				<path id="XMLID_1000_" style="fill:#37474F;" d="M395.042,282.89c3.595,1.813,6.692,6.542,6.919,10.562
					c0.227,4.02-2.503,5.808-6.098,3.995c-3.595-1.814-6.692-6.542-6.919-10.562C388.717,282.865,391.448,281.077,395.042,282.89z"
					/>
				<path id="XMLID_998_" style="fill:#263238;" d="M393.25,289.057c-0.089-1.571,0.826-2.348,2.043-1.734
					c1.217,0.614,2.275,2.385,2.364,3.957c0.089,1.571-0.826,2.348-2.043,1.734C394.397,292.4,393.338,290.628,393.25,289.057z"/>
				<path id="XMLID_997_" style="fill:#27DEBF;" d="M402.052,275.766c0,0,0.403,7.193-2.882,9.931
					c-0.619,0.516-1.287,0.887-1.672,1.246c-0.834,0.777-0.179,2.083,0.916,2.593c1.592,0.741,9.881-1.974,13.061-9.016
					L402.052,275.766z"/>
				<path id="XMLID_1045_" style="opacity:0.6;" d="M402.052,275.766c0,0,0.403,7.193-2.882,9.931
					c-0.619,0.516-1.287,0.887-1.672,1.246c-0.834,0.777-0.179,2.083,0.916,2.593c1.592,0.741,9.881-1.974,13.061-9.016
					L402.052,275.766z"/>
				<path id="XMLID_967_" style="fill:#27DEBF;" d="M398.891,277.826c0,0,0.403,7.193-2.882,9.931
					c-0.619,0.516-1.287,0.887-1.672,1.246c-0.833,0.777-0.179,2.083,0.916,2.593c1.592,0.741,9.881-1.974,13.061-9.016
					L398.891,277.826z"/>
				<path id="XMLID_633_" style="opacity:0.4;" d="M398.891,277.826c0,0,0.403,7.193-2.882,9.931
					c-0.619,0.516-1.287,0.887-1.672,1.246c-0.833,0.777-0.179,2.083,0.916,2.593c1.592,0.741,9.881-1.974,13.061-9.016
					L398.891,277.826z"/>
				<path id="XMLID_966_" style="fill:#263238;" d="M395.414,289.47c0.345,0.174,0.642,0.628,0.664,1.013
					c0.022,0.386-0.24,0.557-0.585,0.383c-0.345-0.174-0.642-0.628-0.664-1.013C394.807,289.468,395.069,289.296,395.414,289.47z"/>
			</g>
			<g>
				<path style="fill:#27DEBF;" d="M419.694,339.928c-2.385,0.135-4.799-0.253-6.675-1.196l-63.418-31.691
					c-3.575-1.797-7.584-6.471-7.833-10.893l-3.345-59.275l3.293-0.186l3.345,59.275c0.17,3.008,3.317,6.773,6.018,8.13
					l63.418,31.691c2.735,1.375,7.372,1.106,9.927-0.574l35.151-20.346c0.943-0.62,1.485-1.361,1.449-1.982
					c-0.035-0.615-0.628-1.256-1.625-1.758l-63.307-36.751c-3.567-1.795-7.564-6.47-7.814-10.898l-2.409-40.51l3.293-0.186
					l2.409,40.511c0.17,3.014,3.306,6.781,5.997,8.135l63.307,36.752c2.115,1.064,3.335,2.667,3.442,4.516
					c0.106,1.838-0.962,3.634-2.931,4.929l-35.152,20.346C424.468,339.127,422.095,339.793,419.694,339.928z"/>
			</g>
			<g style="opacity:0.5;">
				<path d="M419.694,339.928c-2.385,0.135-4.799-0.253-6.675-1.196l-63.418-31.691c-3.575-1.797-7.584-6.471-7.833-10.893
					l-3.345-59.275l3.293-0.186l3.345,59.275c0.17,3.008,3.317,6.773,6.018,8.13l63.418,31.691c2.735,1.375,7.372,1.106,9.927-0.574
					l35.151-20.346c0.943-0.62,1.485-1.361,1.449-1.982c-0.035-0.615-0.628-1.256-1.625-1.758l-63.307-36.751
					c-3.567-1.795-7.564-6.47-7.814-10.898l-2.409-40.51l3.293-0.186l2.409,40.511c0.17,3.014,3.306,6.781,5.997,8.135
					l63.307,36.752c2.115,1.064,3.335,2.667,3.442,4.516c0.106,1.838-0.962,3.634-2.931,4.929l-35.152,20.346
					C424.468,339.127,422.095,339.793,419.694,339.928z"/>
			</g>
		</g>
		<g>
			<g id="XMLID_1094_">
				<path id="XMLID_859_" style="fill:#27DEBF;" d="M328.678,176.976c-1.259-4.085,0.637-9.343,4.212-11.685l35.829-23.643
					c3.575-2.342,7.484-0.715,8.742,3.369l5.452,17.693l-2.646,1.731l-5.304-16.481c-0.696-2.163-2.815-2.904-4.708-1.648
					l-34.797,23.068c-2.286,1.517-3.525,4.911-2.753,7.544l4.593,15.671l-3.167,2.074L328.678,176.976z"/>
			</g>
			<g id="XMLID_624_" style="opacity:0.5;">
				<path id="XMLID_627_" d="M328.678,176.976c-1.259-4.085,0.637-9.343,4.212-11.685l35.829-23.643
					c3.575-2.342,7.484-0.715,8.742,3.369l5.452,17.693l-2.646,1.731l-5.304-16.481c-0.696-2.163-2.815-2.904-4.708-1.648
					l-34.797,23.068c-2.286,1.517-3.525,4.911-2.753,7.544l4.593,15.671l-3.167,2.074L328.678,176.976z"/>
			</g>
		</g>
		<g>
			<polygon id="XMLID_858_" style="fill:#27DEBF;" points="334.131,194.668 382.913,162.71 388.048,227.993 339.266,259.951 			"/>
		</g>
		<g>
			<path id="XMLID_834_" style="fill:#27DEBF;" d="M382.913,162.71l5.135,65.284l84.611,42.685l14.391-55.433L382.913,162.71z
				 M413.377,225.967c-2.129,0.82-4.605-0.463-5.531-2.866L395.093,190c-0.926-2.403,0.049-5.016,2.178-5.836
				c2.129-0.82,4.605,0.463,5.531,2.866l12.754,33.101C416.482,222.534,415.506,225.146,413.377,225.967z M437.475,237.305
				c-2.129,0.82-4.605-0.463-5.531-2.866l-12.754-33.101c-0.926-2.403,0.05-5.016,2.179-5.836c2.128-0.82,4.605,0.463,5.531,2.866
				l12.753,33.101C440.58,233.872,439.604,236.485,437.475,237.305z M461.574,248.643c-2.129,0.82-4.605-0.463-5.531-2.866
				l-12.754-33.101c-0.926-2.403,0.05-5.016,2.179-5.836c2.129-0.82,4.605,0.463,5.531,2.866l12.754,33.101
				C464.678,245.21,463.703,247.823,461.574,248.643z"/>
			<path id="XMLID_663_" style="opacity:0.55;fill:#FFFFFF;" d="M382.913,162.71l5.135,65.284l84.611,42.685l14.391-55.433
				L382.913,162.71z M413.377,225.967c-2.129,0.82-4.605-0.463-5.531-2.866L395.093,190c-0.926-2.403,0.049-5.016,2.178-5.836
				c2.129-0.82,4.605,0.463,5.531,2.866l12.754,33.101C416.482,222.534,415.506,225.146,413.377,225.967z M437.475,237.305
				c-2.129,0.82-4.605-0.463-5.531-2.866l-12.754-33.101c-0.926-2.403,0.05-5.016,2.179-5.836c2.128-0.82,4.605,0.463,5.531,2.866
				l12.753,33.101C440.58,233.872,439.604,236.485,437.475,237.305z M461.574,248.643c-2.129,0.82-4.605-0.463-5.531-2.866
				l-12.754-33.101c-0.926-2.403,0.05-5.016,2.179-5.836c2.129-0.82,4.605,0.463,5.531,2.866l12.754,33.101
				C464.678,245.21,463.703,247.823,461.574,248.643z"/>
		</g>
		<g>
			<polygon id="XMLID_963_" style="fill:#27DEBF;" points="388.049,227.993 339.266,259.951 423.877,302.637 472.659,270.689 			"/>
			<polygon id="XMLID_958_" style="opacity:0.1;" points="388.049,227.993 339.266,259.951 423.877,302.637 472.659,270.689 			"/>
		</g>
		<g>
			<g>
				<path id="XMLID_574_" style="fill:#27DEBF;" d="M334.131,194.668l5.135,65.283l84.611,42.686l14.391-55.433L334.131,194.668z
					 M364.595,257.934c-2.129,0.82-4.605-0.463-5.531-2.866l-12.754-33.101c-0.926-2.403,0.049-5.016,2.179-5.836
					c2.129-0.82,4.605,0.463,5.531,2.866l12.753,33.101C367.7,254.501,366.725,257.114,364.595,257.934z M388.694,269.272
					c-2.129,0.821-4.605-0.463-5.531-2.865l-12.753-33.101c-0.926-2.403,0.049-5.016,2.178-5.836
					c2.129-0.82,4.605,0.463,5.531,2.866l12.754,33.101C391.798,265.839,390.823,268.452,388.694,269.272z M412.793,280.611
					c-2.129,0.82-4.605-0.463-5.531-2.866l-12.754-33.101c-0.926-2.403,0.049-5.016,2.178-5.836
					c2.129-0.821,4.605,0.463,5.531,2.866l12.754,33.101C415.897,277.177,414.921,279.79,412.793,280.611z"/>
				<path id="XMLID_559_" style="opacity:0.65;fill:#FFFFFF;" d="M334.131,194.668l5.135,65.283l84.611,42.686l14.391-55.433
					L334.131,194.668z M364.595,257.934c-2.129,0.82-4.605-0.463-5.531-2.866l-12.754-33.101c-0.926-2.403,0.049-5.016,2.179-5.836
					c2.129-0.82,4.605,0.463,5.531,2.866l12.753,33.101C367.7,254.501,366.725,257.114,364.595,257.934z M388.694,269.272
					c-2.129,0.821-4.605-0.463-5.531-2.865l-12.753-33.101c-0.926-2.403,0.049-5.016,2.178-5.836
					c2.129-0.82,4.605,0.463,5.531,2.866l12.754,33.101C391.798,265.839,390.823,268.452,388.694,269.272z M412.793,280.611
					c-2.129,0.82-4.605-0.463-5.531-2.866l-12.754-33.101c-0.926-2.403,0.049-5.016,2.178-5.836
					c2.129-0.821,4.605,0.463,5.531,2.866l12.754,33.101C415.897,277.177,414.921,279.79,412.793,280.611z"/>
			</g>
			<g>
				<polygon id="XMLID_558_" style="fill:#27DEBF;" points="438.267,247.204 487.05,215.256 472.659,270.689 423.877,302.637 				
					"/>
				<polygon id="XMLID_539_" style="opacity:0.2;fill:#FFFFFF;" points="438.267,247.204 487.05,215.256 472.659,270.689 
					423.877,302.637 				"/>
			</g>
		</g>
	</g>
</g>
<g id="Device">
	<g id="Decvice">
		<g>
			<path style="fill:#27DEBF;" d="M200.527,68.134v236.5c0,2.2-1.55,3.61-3.47,4.71l-101.37,58.54v-235.21c0-2.22,0-3.99,0-3.99
				L200.527,68.134z"/>
			<path style="opacity:0.23;" d="M200.527,68.134v236.5c0,2.2-1.55,3.61-3.47,4.71l-101.37,58.54v-235.21c0-2.22,0-3.99,0-3.99
				L200.527,68.134z"/>
		</g>
		<g id="Device_1_">
			<g>
				<path id="XMLID_15219_" style="fill:#27DEBF;" d="M214.037,37.355l-119.73,69.126c-2.229,1.295-4.044,4.437-4.044,7.016v291.204
					c0,2.579,1.815,3.63,4.044,2.335l119.73-69.126c2.229-1.295,4.044-4.437,4.044-7.016V39.69
					C218.081,37.111,216.266,36.06,214.037,37.355z M212.254,311.633c0,2.208-1.55,3.615-3.471,4.719L99.158,379.651
					c-1.911,1.104-3.471,0.212-3.471-2.006v-244.97c0-2.219,0-3.99,0-3.99l116.566-67.333c0,0,0,1.804,0,4.012V311.633z"/>
				<path id="XMLID_451_" style="opacity:0.5;" d="M214.037,37.355l-119.73,69.126c-2.229,1.295-4.044,4.437-4.044,7.016v291.204
					c0,2.579,1.815,3.63,4.044,2.335l119.73-69.126c2.229-1.295,4.044-4.437,4.044-7.016V39.69
					C218.081,37.111,216.266,36.06,214.037,37.355z M212.254,311.633c0,2.208-1.55,3.615-3.471,4.719L99.158,379.651
					c-1.911,1.104-3.471,0.212-3.471-2.006v-244.97c0-2.219,0-3.99,0-3.99l116.566-67.333c0,0,0,1.804,0,4.012V311.633z"/>
			</g>
			<g>
				<path style="fill:#27DEBF;" d="M212.257,61.355c0,0,0,1.8,0,4.01v246.269c0,2.21-1.55,3.61-3.47,4.72l-109.63,63.3
					c-1.91,1.1-3.47,0.21-3.47-2.01v-9.76l101.37-58.54c1.92-1.1,3.47-2.51,3.47-4.71V68.135L212.257,61.355z"/>
				<path style="opacity:0.4;" d="M99.157,379.654l109.63-63.3c1.082-0.626,2.035-1.35,2.671-2.254l-11.841-6.848
					c-0.634,0.831-1.54,1.507-2.56,2.091l-101.37,58.54v9.76C95.687,379.864,97.247,380.754,99.157,379.654z"/>
				<path style="opacity:0.15;" d="M199.617,307.252c-0.634,0.831-1.54,1.507-2.56,2.091L96.002,367.702v1.33l101.37-58.54
					c1.294-0.741,2.407-1.631,3.004-2.801L199.617,307.252z"/>
				<path style="opacity:0.6;" d="M212.257,311.634V65.365c0-2.21,0-4.01,0-4.01l-11.73,6.78v236.499c0,1.032-0.35,1.885-0.91,2.618
					v0l11.841,6.848C211.95,313.401,212.257,312.598,212.257,311.634z"/>
			</g>
			<g>
				<path id="XMLID_15214_" style="fill:#27DEBF;" d="M93.803,407.292c-2.245,1.032-5.513,0.942-7.598-0.251l-4.631-2.676
					c-2.245-1.293-4.059-4.421-4.059-7.017V106.16c0-0.982,0.261-2.025,0.702-3.027c0.14-0.331,0.301-0.652,0.481-0.972
					c0.01,0,0.01-0.01,0.01-0.01l12.74,7.357h0.01c-0.271,0.481-0.511,0.982-0.702,1.484c-0.311,0.842-0.491,1.704-0.491,2.506
					v291.208C90.265,407.081,91.809,408.164,93.803,407.292z"/>
				<path id="XMLID_450_" style="opacity:0.6;" d="M93.803,407.292c-2.245,1.032-5.513,0.942-7.598-0.251l-4.631-2.676
					c-2.245-1.293-4.059-4.421-4.059-7.017V106.16c0-0.982,0.261-2.025,0.702-3.027c0.14-0.331,0.301-0.652,0.481-0.972
					c0.01,0,0.01-0.01,0.01-0.01l12.74,7.357h0.01c-0.271,0.481-0.511,0.982-0.702,1.484c-0.311,0.842-0.491,1.704-0.491,2.506
					v291.208C90.265,407.081,91.809,408.164,93.803,407.292z"/>
			</g>
			<g id="XMLID_448_">
				<path style="fill:#37474F;" d="M156.826,353.984L156.826,353.984c2.071,0,2.295,2.323,2.295,3.322
					c0,3.612-2.643,8.19-5.771,9.996c-0.801,0.462-1.573,0.707-2.234,0.707c-2.072,0-2.295-2.323-2.295-3.322
					c0-3.612,2.643-8.19,5.771-9.996C155.392,354.228,156.164,353.984,156.826,353.984 M156.825,352.742
					c-0.859,0-1.829,0.281-2.855,0.873c-3.53,2.038-6.392,6.995-6.392,11.071c0,2.892,1.44,4.563,3.537,4.563
					c0.859,0,1.829-0.281,2.855-0.873c3.53-2.038,6.392-6.995,6.392-11.071C160.362,354.414,158.923,352.742,156.825,352.742
					L156.825,352.742z"/>
			</g>
			<g id="XMLID_15208_">
				<path id="XMLID_15210_" style="fill:#37474F;" d="M154.083,76.083c1.499-0.865,2.714-0.164,2.714,1.567
					c0,1.731-1.215,3.836-2.714,4.701c-1.499,0.866-2.714,0.164-2.714-1.567C151.369,79.053,152.584,76.948,154.083,76.083z"/>
				<path id="XMLID_15209_" style="fill:#37474F;" d="M139.498,92.867l29.35-16.954c1.25-0.722,2.264-0.209,2.264,1.145
					c0,1.354-1.013,3.037-2.264,3.759l-29.35,16.954c-1.25,0.722-2.264,0.209-2.263-1.145
					C137.234,95.272,138.247,93.589,139.498,92.867z"/>
			</g>
			<g>
				<path id="XMLID_15206_" style="fill:#27DEBF;" d="M218.042,39.048c-0.291-2.105-1.975-2.867-4-1.694L94.304,106.481
					c-1.113,0.641-2.125,1.754-2.857,3.027l-12.74-7.357c0.742-1.273,1.744-2.366,2.867-3.007l119.718-69.138
					c2.225-1.293,5.854-1.293,8.099,0l4.651,2.666C216.087,33.865,217.781,36.602,218.042,39.048z"/>
				<path id="XMLID_262_" style="opacity:0.3;" d="M218.042,39.048c-0.291-2.105-1.975-2.867-4-1.694L94.304,106.481
					c-1.113,0.641-2.125,1.754-2.857,3.027l-12.74-7.357c0.742-1.273,1.744-2.366,2.867-3.007l119.718-69.138
					c2.225-1.293,5.854-1.293,8.099,0l4.651,2.666C216.087,33.865,217.781,36.602,218.042,39.048z"/>
			</g>
		</g>
		<g id="XMLID_530_">
			<g id="XMLID_543_">
				<path id="XMLID_560_" style="fill:#27DEBF;" d="M114.202,284.194l-3.415-1.971c-1.076-0.621-1.949-2.132-1.949-3.375V148.263
					c0-1.243,0.872-2.754,1.949-3.375l65.563-37.853c1.076-0.621,2.82-0.62,3.896,0.002l3.418,1.978
					c1.076,0.622,1.947,2.134,1.947,3.377v130.575c0,1.243-0.872,2.754-1.949,3.375l-65.564,37.853
					C117.023,284.815,115.278,284.815,114.202,284.194z"/>
				<path id="XMLID_538_" style="opacity:0.6;fill:#FFFFFF;" d="M114.202,284.194l-3.415-1.971
					c-1.076-0.621-1.949-2.132-1.949-3.375V148.263c0-1.243,0.872-2.754,1.949-3.375l65.563-37.853
					c1.076-0.621,2.82-0.62,3.896,0.002l3.418,1.978c1.076,0.622,1.947,2.134,1.947,3.377v130.575c0,1.243-0.872,2.754-1.949,3.375
					l-65.564,37.853C117.023,284.815,115.278,284.815,114.202,284.194z"/>
				<path id="XMLID_555_" style="fill:#27DEBF;" d="M118.099,284.194l65.564-37.853c1.076-0.621,1.949-2.132,1.949-3.375V112.49
					c0-1.243-0.873-1.747-1.95-1.127L118.1,149.111c-1.077,0.62-1.95,2.13-1.95,3.373l0.001,130.585
					C116.15,284.312,117.023,284.815,118.099,284.194z"/>
				<path id="XMLID_534_" style="opacity:0.8;fill:#FFFFFF;" d="M118.099,284.194l65.564-37.853
					c1.076-0.621,1.949-2.132,1.949-3.375V112.49c0-1.243-0.873-1.747-1.95-1.127L118.1,149.111c-1.077,0.62-1.95,2.13-1.95,3.373
					l0.001,130.585C116.15,284.312,117.023,284.815,118.099,284.194z"/>
				<path style="fill:#27DEBF;" d="M185.611,112.391v0.1c0-1.24-0.87-1.75-1.95-1.13l-65.56,37.75c-0.44,0.26-0.86,0.66-1.18,1.14
					l-7.31-4.22c0.33-0.48,0.73-0.89,1.18-1.14l65.56-37.86c1.07-0.62,2.82-0.62,3.89,0.01l3.42,1.97
					C184.742,109.641,185.611,111.151,185.611,112.391z"/>
				<path style="opacity:0.95;fill:#FFFFFF;" d="M185.611,112.391v0.1c0-1.24-0.87-1.75-1.95-1.13l-65.56,37.75
					c-0.44,0.26-0.86,0.66-1.18,1.14l-7.31-4.22c0.33-0.48,0.73-0.89,1.18-1.14l65.56-37.86c1.07-0.62,2.82-0.62,3.89,0.01
					l3.42,1.97C184.742,109.641,185.611,111.151,185.611,112.391z"/>
			</g>
			<g id="XMLID_533_">
				<path id="XMLID_542_" style="fill:#37474F;" d="M152.708,253.131c-12.128,7.002-22.953,6.184-22.953,6.184
					c0-21.204,8.205-43.376,9.181-47.708c0.976-4.331,2.876-10.943,0-14.136c-2.876-3.193-4.592-11.485-4.592-11.485
					s4.592-5.53,4.592-9.719c0-4.19,0.001-12.67,0.001-12.67l4.59-2.65v3.962c0,6.761,4.111,9.869,9.182,6.941l0,0l0,0
					c5.071-2.928,9.182-10.782,9.182-17.543l0-3.962l4.59-2.65c0,0,0.001,8.48,0.001,12.67c0,4.19,4.592,4.417,4.592,4.417
					s-1.715,10.272-4.592,16.786c-2.876,6.514-0.975,10.931,0,14.136c0.975,3.205,9.181,15.903,9.181,37.107
					C175.662,232.811,164.837,246.128,152.708,253.131"/>
			</g>
		</g>
		<g id="toldo_1_">
			<polygon id="XMLID_649_" style="fill:#F5F5F5;" points="95.687,128.694 135.878,151.898 252.445,84.598 212.24,61.402 			"/>
			<g id="XMLID_630_">
				<g>
					<polygon id="XMLID_41_" style="fill:#27DEBF;" points="95.693,128.691 135.878,151.898 148.83,144.42 108.645,121.214 					"/>
					<polygon id="XMLID_40_" style="fill:#27DEBF;" points="121.597,113.736 161.782,136.943 174.734,129.465 134.548,106.258 					
						"/>
					<polygon id="XMLID_39_" style="fill:#27DEBF;" points="147.5,98.781 187.685,121.987 200.638,114.509 160.452,91.303 					"/>
					<polygon id="XMLID_38_" style="fill:#27DEBF;" points="173.404,83.825 213.589,107.032 226.541,99.553 186.355,76.348 					"/>
					<polygon id="XMLID_37_" style="fill:#27DEBF;" points="199.307,68.869 239.492,92.076 252.445,84.598 212.259,61.392 					"/>
				</g>
			</g>
			<g id="XMLID_544_">
				<g>
					<g id="XMLID_113_">
						<path style="fill:#E6E6E6;" d="M148.833,144.422c0,4.77,2.9,6.962,6.477,4.897c3.577-2.065,6.477-7.606,6.477-12.376
							L148.833,144.422z"/>
					</g>
					<g id="XMLID_112_">
						<path style="fill:#E6E6E6;" d="M174.742,129.469c0,4.77,2.9,6.962,6.477,4.897c3.577-2.065,6.477-7.606,6.477-12.376
							L174.742,129.469z"/>
					</g>
					<g id="XMLID_111_">
						<path style="fill:#E6E6E6;" d="M200.652,114.515c0,4.77,2.9,6.962,6.477,4.897c3.577-2.065,6.477-7.606,6.477-12.376
							L200.652,114.515z"/>
					</g>
					<g id="XMLID_110_">
						<path style="fill:#E6E6E6;" d="M226.561,99.562c0,4.77,2.9,6.962,6.477,4.897c3.577-2.065,6.477-7.606,6.477-12.376
							L226.561,99.562z"/>
					</g>
					<g>
						<path id="XMLID_109_" style="fill:#27DEBF;" d="M135.878,151.899c0,4.77,2.9,6.962,6.477,4.897
							c3.577-2.065,6.477-7.606,6.477-12.376L135.878,151.899z"/>
						<path id="XMLID_108_" style="fill:#27DEBF;" d="M161.788,136.945c0,4.77,2.9,6.962,6.477,4.897
							c3.577-2.065,6.477-7.606,6.477-12.376L161.788,136.945z"/>
						<path id="XMLID_107_" style="fill:#27DEBF;" d="M187.697,121.992c0,4.77,2.9,6.962,6.477,4.897
							c3.577-2.065,6.477-7.606,6.477-12.376L187.697,121.992z"/>
						<path id="XMLID_106_" style="fill:#27DEBF;" d="M213.607,107.038c0,4.77,2.9,6.962,6.477,4.897
							c3.577-2.065,6.477-7.606,6.477-12.376L213.607,107.038z"/>
						<path id="XMLID_105_" style="fill:#27DEBF;" d="M239.516,92.085c0,4.77,2.9,6.962,6.477,4.897
							c3.577-2.065,6.477-7.606,6.477-12.376L239.516,92.085z"/>
					</g>
					<g style="opacity:0.2;">
						<path id="XMLID_104_" d="M135.878,151.899c0,4.77,2.9,6.962,6.477,4.897c3.577-2.065,6.477-7.606,6.477-12.376
							L135.878,151.899z"/>
						<path id="XMLID_103_" d="M161.788,136.945c0,4.77,2.9,6.962,6.477,4.897c3.577-2.065,6.477-7.606,6.477-12.376
							L161.788,136.945z"/>
						<path id="XMLID_102_" d="M187.697,121.992c0,4.77,2.9,6.962,6.477,4.897c3.577-2.065,6.477-7.606,6.477-12.376
							L187.697,121.992z"/>
						<path id="XMLID_101_" d="M213.607,107.038c0,4.77,2.9,6.962,6.477,4.897c3.577-2.065,6.477-7.606,6.477-12.376
							L213.607,107.038z"/>
						<path id="XMLID_100_" d="M239.516,92.085c0,4.77,2.9,6.962,6.477,4.897c3.577-2.065,6.477-7.606,6.477-12.376L239.516,92.085z
							"/>
					</g>
				</g>
			</g>
		</g>
		<g>
			<path id="XMLID_623_" style="fill:#27DEBF;" d="M107.732,302.907c0-2.162,1.618-4.85,3.615-6.002l33.461-19.319
				c1.996-1.153,3.615-0.334,3.615,1.828c0,2.162-1.618,4.85-3.615,6.002l-33.461,19.319
				C109.351,305.888,107.732,305.069,107.732,302.907z"/>
			<path id="XMLID_535_" style="opacity:0.8;fill:#FFFFFF;" d="M107.732,302.907c0-2.162,1.618-4.85,3.615-6.002l33.461-19.319
				c1.996-1.153,3.615-0.334,3.615,1.828c0,2.162-1.618,4.85-3.615,6.002l-33.461,19.319
				C109.351,305.888,107.732,305.069,107.732,302.907z"/>
		</g>
		<g id="XMLID_590_">
			<path style="fill:#37474F;" d="M112.829,312.988c0.362-0.092,0.689-0.111,0.982-0.061c0.294,0.05,0.545,0.152,0.755,0.305
				c0.209,0.151,0.374,0.344,0.494,0.574c0.12,0.23,0.185,0.482,0.193,0.757c0,0.097-0.026,0.194-0.079,0.294
				c-0.052,0.102-0.11,0.169-0.175,0.206l-1.58,0.912c-0.112,0.065-0.203,0.096-0.271,0.093c-0.068-0.003-0.139-0.027-0.211-0.07
				c-0.023-0.02-0.062-0.051-0.114-0.096c-0.053-0.045-0.127-0.079-0.224-0.104c-0.096-0.024-0.217-0.024-0.361,0
				c-0.145,0.024-0.321,0.098-0.53,0.218c-0.153,0.089-0.301,0.186-0.441,0.295c-0.14,0.107-0.266,0.223-0.373,0.344
				c-0.108,0.122-0.197,0.256-0.266,0.403s-0.103,0.3-0.103,0.46c0,0.162,0.038,0.273,0.115,0.336
				c0.076,0.064,0.204,0.09,0.386,0.076c0.181-0.014,0.42-0.064,0.718-0.15c0.297-0.086,0.667-0.197,1.109-0.335
				c0.441-0.137,0.828-0.21,1.158-0.218c0.329-0.008,0.604,0.061,0.826,0.206c0.221,0.146,0.386,0.373,0.494,0.68
				c0.108,0.308,0.163,0.714,0.163,1.218c0,0.449-0.065,0.898-0.193,1.35c-0.128,0.449-0.31,0.885-0.543,1.311
				c-0.233,0.424-0.515,0.827-0.844,1.211c-0.33,0.383-0.691,0.73-1.086,1.045v1.141c0,0.119-0.032,0.238-0.097,0.361
				c-0.064,0.123-0.141,0.211-0.229,0.262l-1.58,0.912c-0.089,0.051-0.165,0.053-0.229,0.004c-0.065-0.049-0.097-0.133-0.097-0.25
				v-1.189c-0.386,0.104-0.733,0.137-1.043,0.096c-0.31-0.041-0.575-0.137-0.796-0.289c-0.222-0.15-0.393-0.354-0.513-0.612
				c-0.121-0.257-0.186-0.55-0.193-0.878c0-0.096,0.025-0.194,0.078-0.294c0.053-0.101,0.111-0.169,0.175-0.206l1.58-0.912
				c0.112-0.065,0.201-0.098,0.266-0.098c0.064,0.002,0.129,0.02,0.193,0.059c0.031,0.023,0.08,0.065,0.145,0.125
				c0.063,0.06,0.151,0.109,0.26,0.148c0.107,0.039,0.245,0.049,0.41,0.027c0.164-0.02,0.367-0.1,0.608-0.238
				c0.427-0.246,0.782-0.514,1.067-0.802c0.286-0.288,0.429-0.593,0.429-0.915c0-0.16-0.053-0.264-0.157-0.311
				s-0.262-0.056-0.47-0.025c-0.209,0.028-0.477,0.095-0.803,0.197c-0.326,0.102-0.71,0.217-1.152,0.344
				c-0.828,0.242-1.434,0.197-1.814-0.135c-0.383-0.331-0.573-0.959-0.573-1.881c0-0.375,0.052-0.767,0.157-1.176
				c0.104-0.408,0.255-0.814,0.452-1.219c0.197-0.402,0.438-0.793,0.724-1.174c0.285-0.378,0.609-0.73,0.971-1.059v-1.189
				c0-0.119,0.031-0.238,0.097-0.361c0.064-0.123,0.141-0.211,0.229-0.262l1.58-0.912c0.088-0.051,0.164-0.053,0.229-0.004
				c0.064,0.049,0.097,0.133,0.097,0.25V312.988z"/>
			<path style="fill:#37474F;" d="M116.11,314.68c-0.057-0.064-0.077-0.159-0.061-0.287c0.016-0.126,0.061-0.248,0.133-0.365
				l2.593-4.15c0.064-0.102,0.143-0.223,0.236-0.361c0.092-0.14,0.198-0.244,0.318-0.314l1.472-0.85
				c0.089-0.052,0.165-0.052,0.229-0.003c0.064,0.049,0.096,0.131,0.096,0.25v10.389c0,0.117-0.031,0.238-0.096,0.361
				c-0.064,0.123-0.141,0.209-0.229,0.261l-1.58,0.912c-0.089,0.052-0.165,0.052-0.229,0.003c-0.064-0.047-0.097-0.131-0.097-0.25
				v-7.027l-1.436,2.276c-0.072,0.117-0.153,0.192-0.241,0.228c-0.089,0.035-0.161,0.021-0.217-0.043L116.11,314.68z"/>
			<path style="fill:#37474F;" d="M126.072,305.149c0.604-0.349,1.121-0.529,1.557-0.545c0.434-0.015,0.794,0.093,1.079,0.326
				c0.285,0.231,0.499,0.572,0.639,1.021c0.141,0.449,0.224,0.957,0.248,1.521c0.017,0.453,0.023,0.932,0.023,1.436
				c0,0.504-0.007,0.979-0.023,1.428c-0.024,0.594-0.107,1.196-0.248,1.808c-0.14,0.612-0.354,1.199-0.639,1.761
				c-0.285,0.56-0.645,1.086-1.079,1.571c-0.436,0.487-0.953,0.905-1.557,1.253c-0.603,0.348-1.121,0.529-1.556,0.544
				c-0.435,0.015-0.795-0.093-1.079-0.325c-0.286-0.231-0.499-0.572-0.64-1.022c-0.141-0.449-0.224-0.956-0.247-1.522
				c-0.017-0.43-0.024-0.897-0.024-1.401s0.008-0.99,0.024-1.462c0.023-0.592,0.106-1.195,0.247-1.807
				c0.141-0.611,0.354-1.198,0.64-1.76c0.284-0.562,0.645-1.085,1.079-1.572C124.951,305.915,125.469,305.498,126.072,305.149z
				 M127.363,311.544c0.032-0.93,0.032-1.83,0-2.701c-0.017-0.259-0.047-0.487-0.091-0.688c-0.044-0.199-0.114-0.354-0.211-0.465
				c-0.096-0.11-0.226-0.166-0.386-0.17c-0.161-0.004-0.362,0.064-0.604,0.203c-0.241,0.139-0.442,0.303-0.603,0.492
				c-0.161,0.19-0.29,0.395-0.386,0.617c-0.097,0.223-0.17,0.459-0.218,0.712c-0.048,0.253-0.077,0.517-0.084,0.789
				c-0.041,0.913-0.041,1.814,0,2.701c0.007,0.265,0.033,0.495,0.078,0.694c0.044,0.201,0.117,0.354,0.218,0.462
				c0.1,0.108,0.23,0.165,0.392,0.169c0.16,0.002,0.361-0.064,0.603-0.204c0.241-0.14,0.442-0.304,0.604-0.493
				c0.16-0.189,0.291-0.396,0.392-0.621c0.101-0.224,0.173-0.461,0.217-0.711C127.329,312.078,127.355,311.816,127.363,311.544z"/>
			<path style="fill:#37474F;" d="M132.948,312.163c0,0.118-0.032,0.239-0.097,0.361c-0.064,0.123-0.141,0.21-0.23,0.261
				l-1.58,0.913c-0.088,0.051-0.165,0.052-0.229,0.003c-0.064-0.047-0.097-0.131-0.097-0.25v-2.105c0-0.119,0.032-0.238,0.097-0.361
				c0.064-0.123,0.142-0.211,0.229-0.262l1.58-0.912c0.089-0.051,0.165-0.053,0.23-0.004c0.064,0.049,0.097,0.132,0.097,0.25
				V312.163z"/>
			<path style="fill:#37474F;" d="M136.217,307.366c0.056,0.064,0.118,0.13,0.187,0.198c0.068,0.066,0.151,0.119,0.247,0.154
				c0.097,0.035,0.214,0.045,0.35,0.031c0.136-0.015,0.297-0.075,0.481-0.182c0.17-0.098,0.33-0.221,0.483-0.368
				c0.152-0.147,0.289-0.315,0.41-0.503c0.12-0.186,0.215-0.385,0.283-0.597c0.067-0.211,0.103-0.435,0.103-0.671
				c0-0.363-0.107-0.6-0.319-0.707c-0.214-0.107-0.505-0.055-0.875,0.158c-0.112,0.065-0.219,0.148-0.319,0.25
				c-0.101,0.101-0.193,0.199-0.277,0.297c-0.085,0.096-0.163,0.188-0.235,0.271c-0.073,0.086-0.133,0.142-0.181,0.17l-1.882,1.086
				c-0.097,0.055-0.177,0.059-0.241,0.01c-0.064-0.049-0.093-0.134-0.085-0.257l0.362-5.95c0.008-0.122,0.042-0.244,0.102-0.364
				c0.06-0.12,0.134-0.206,0.223-0.258l5.163-2.98c0.089-0.052,0.164-0.052,0.229-0.003c0.064,0.049,0.097,0.131,0.097,0.25v1.705
				c0,0.117-0.032,0.238-0.097,0.359c-0.064,0.123-0.14,0.211-0.229,0.262l-3.51,2.026l-0.085,1.48
				c0.145-0.19,0.312-0.375,0.501-0.555c0.188-0.179,0.395-0.333,0.62-0.463c0.467-0.27,0.899-0.433,1.298-0.491
				c0.397-0.059,0.743-0.012,1.037,0.141c0.293,0.152,0.522,0.417,0.688,0.793c0.165,0.377,0.247,0.871,0.247,1.482
				c0,0.643-0.091,1.264-0.271,1.861c-0.181,0.598-0.43,1.156-0.748,1.678c-0.317,0.522-0.689,0.99-1.115,1.408
				c-0.427,0.418-0.885,0.768-1.376,1.051c-0.547,0.316-1.035,0.504-1.465,0.564c-0.43,0.062-0.795,0.02-1.091-0.126
				c-0.298-0.144-0.527-0.377-0.688-0.696c-0.161-0.32-0.245-0.697-0.253-1.133c0-0.096,0.025-0.193,0.078-0.295
				c0.053-0.1,0.114-0.17,0.188-0.212l1.531-0.884c0.129-0.074,0.228-0.1,0.296-0.074
				C136.145,307.31,136.192,307.338,136.217,307.366z"/>
			<path style="fill:#37474F;" d="M141.801,300.072c0-0.621,0.099-1.238,0.296-1.851c0.196-0.612,0.46-1.185,0.79-1.718
				c0.329-0.534,0.707-1.016,1.134-1.443c0.426-0.428,0.864-0.771,1.314-1.031c0.45-0.261,0.889-0.423,1.314-0.486
				c0.427-0.064,0.805-0.02,1.135,0.133c0.329,0.153,0.593,0.422,0.79,0.807c0.196,0.385,0.295,0.889,0.295,1.51
				c0,0.311-0.026,0.613-0.079,0.906c-0.052,0.293-0.12,0.578-0.204,0.857c-0.085,0.279-0.18,0.555-0.283,0.823
				c-0.105,0.27-0.21,0.531-0.314,0.784l-2.292,5.553c-0.039,0.077-0.084,0.17-0.133,0.277c-0.048,0.109-0.128,0.195-0.24,0.26
				l-1.919,1.107c-0.071,0.042-0.13,0.041-0.174-0.004c-0.045-0.043-0.066-0.113-0.066-0.21c0-0.054,0.006-0.101,0.019-0.14
				c0.012-0.039,0.025-0.073,0.042-0.105l1.543-3.786c-0.394,0.152-0.77,0.226-1.127,0.225c-0.358-0.002-0.674-0.094-0.947-0.273
				c-0.273-0.18-0.49-0.448-0.651-0.806C141.882,301.104,141.801,300.641,141.801,300.072z M146.637,297.28
				c0-0.214-0.036-0.39-0.108-0.524c-0.072-0.135-0.169-0.229-0.29-0.283c-0.121-0.053-0.26-0.069-0.416-0.049
				c-0.156,0.021-0.319,0.08-0.488,0.178c-0.169,0.098-0.332,0.227-0.488,0.387c-0.157,0.16-0.296,0.337-0.416,0.529
				c-0.121,0.193-0.218,0.398-0.29,0.617c-0.072,0.219-0.108,0.436-0.108,0.65c0,0.215,0.036,0.389,0.108,0.523
				c0.072,0.135,0.169,0.23,0.29,0.283c0.12,0.055,0.259,0.071,0.416,0.05c0.156-0.021,0.319-0.08,0.488-0.177
				c0.169-0.098,0.332-0.227,0.488-0.387c0.156-0.16,0.295-0.337,0.416-0.531c0.121-0.192,0.218-0.398,0.29-0.617
				C146.601,297.711,146.637,297.495,146.637,297.28z"/>
		</g>
		<g id="XMLID_585_">
			<path id="XMLID_589_" style="fill:#37474F;" d="M155.774,294.696c0,1.081,0.809,1.49,1.807,0.914l3.167-1.828
				c0.998-0.576,1.807-1.92,1.807-3.001c0-1.081-0.809-1.491-1.807-0.914l-3.167,1.828
				C156.583,292.271,155.774,293.615,155.774,294.696z"/>
			<path id="XMLID_588_" style="fill:#37474F;" d="M165.946,288.823c0,1.081,0.809,1.491,1.807,0.914l3.167-1.828
				c0.998-0.576,1.807-1.92,1.807-3.001c0-1.081-0.809-1.491-1.807-0.914l-3.167,1.828
				C166.755,286.398,165.946,287.742,165.946,288.823z"/>
			<path id="XMLID_587_" style="fill:#37474F;" d="M176.118,282.95c0,1.081,0.809,1.491,1.807,0.914l3.167-1.828
				c0.998-0.576,1.807-1.92,1.807-3.001c0-1.081-0.809-1.49-1.807-0.914l-3.167,1.828
				C176.928,280.525,176.118,281.869,176.118,282.95z"/>
			<path id="XMLID_586_" style="fill:#37474F;" d="M186.291,277.077c0,1.081,0.809,1.491,1.807,0.914l3.167-1.829
				c0.998-0.576,1.807-1.92,1.807-3.001s-0.809-1.491-1.807-0.914l-3.167,1.828C187.1,274.652,186.291,275.996,186.291,277.077z"/>
		</g>
		<g id="add_to_bag_box_2_">
			<g id="XMLID_581_">
				<path id="XMLID_540_" style="fill:#27DEBF;" d="M170.463,300.718c-0.936-0.541-2.505-0.512-3.503,0.065l-60.811,35.109
					c-0.998,0.576-1.807,1.978-1.807,3.13l0,11.488c0,1.153,0.759,2.525,1.695,3.066c0.936,0.541,2.505,0.512,3.503-0.065
					l60.811-35.109c0.998-0.576,1.807-1.978,1.807-3.13l0-11.488C172.158,302.631,171.399,301.259,170.463,300.718z"/>
				<path id="XMLID_545_" style="opacity:0.3;" d="M170.463,300.718c-0.936-0.541-2.505-0.512-3.503,0.065l-60.811,35.109
					c-0.998,0.576-1.807,1.978-1.807,3.13l0,11.488c0,1.153,0.759,2.525,1.695,3.066c0.936,0.541,2.505,0.512,3.503-0.065
					l60.811-35.109c0.998-0.576,1.807-1.978,1.807-3.13l0-11.488C172.158,302.631,171.399,301.259,170.463,300.718z"/>
				<path id="XMLID_573_" style="fill:#27DEBF;" d="M109.54,337.85l60.811-35.109c0.998-0.576,1.807-0.109,1.807,1.044l0,11.488
					c0,1.153-0.809,2.554-1.807,3.13l-60.811,35.109c-0.998,0.576-1.807,0.109-1.807-1.044V340.98
					C107.732,339.828,108.542,338.426,109.54,337.85z"/>
				<path style="fill:#27DEBF;" d="M172.137,303.493c-0.13-0.94-0.88-1.28-1.79-0.75l-60.81,35.11c-0.5,0.29-0.96,0.78-1.28,1.35
					l-3.39-1.96c0.33-0.57,0.78-1.06,1.28-1.35l60.81-35.11c1-0.58,2.57-0.61,3.51-0.07
					C171.317,301.213,172.027,302.413,172.137,303.493z"/>
				<path style="opacity:0.5;fill:#FFFFFF;" d="M172.137,303.493c-0.13-0.94-0.88-1.28-1.79-0.75l-60.81,35.11
					c-0.5,0.29-0.96,0.78-1.28,1.35l-3.39-1.96c0.33-0.57,0.78-1.06,1.28-1.35l60.81-35.11c1-0.58,2.57-0.61,3.51-0.07
					C171.317,301.213,172.027,302.413,172.137,303.493z"/>
			</g>
			<g id="XMLID_566_">
				<path style="fill:#FFFFFF;" d="M114.605,338.52c0.12-0.068,0.212-0.076,0.275-0.025c0.063,0.052,0.106,0.114,0.13,0.189
					l1.962,6.427c0.024,0.066,0.036,0.119,0.036,0.16c0,0.07-0.02,0.145-0.058,0.219c-0.04,0.076-0.087,0.128-0.14,0.158
					l-1.135,0.655c-0.12,0.069-0.205,0.085-0.257,0.047c-0.051-0.039-0.082-0.087-0.094-0.144l-0.252-0.852l-2.395,1.383
					l-0.252,1.142c-0.012,0.07-0.043,0.155-0.095,0.253c-0.051,0.097-0.136,0.18-0.256,0.25l-1.135,0.654
					c-0.054,0.031-0.101,0.033-0.14,0.002c-0.038-0.029-0.058-0.08-0.058-0.151c0-0.04,0.012-0.107,0.036-0.202l1.962-8.691
					c0.024-0.102,0.067-0.215,0.131-0.34c0.063-0.123,0.153-0.221,0.273-0.291L114.605,338.52z M113.147,344.606l1.458-0.842
					l-0.729-2.459L113.147,344.606z"/>
				<path style="fill:#FFFFFF;" d="M120.815,334.935c0.415-0.239,0.793-0.376,1.135-0.409c0.342-0.033,0.638,0.027,0.886,0.18
					c0.25,0.151,0.444,0.394,0.586,0.723c0.141,0.331,0.221,0.735,0.238,1.213c0.006,0.165,0.009,0.317,0.009,0.457
					c0,0.14,0,0.274,0,0.401c0,0.129,0,0.261,0,0.396c0,0.136-0.003,0.286-0.009,0.45c-0.017,0.506-0.096,1.002-0.234,1.49
					c-0.138,0.488-0.328,0.95-0.571,1.387c-0.243,0.436-0.532,0.832-0.868,1.19c-0.337,0.358-0.711,0.657-1.125,0.895l-2.431,1.403
					c-0.065,0.038-0.122,0.038-0.171,0.003c-0.048-0.037-0.071-0.1-0.071-0.188v-7.752c0-0.088,0.023-0.178,0.071-0.269
					c0.049-0.093,0.105-0.157,0.171-0.195L120.815,334.935z M121.995,337.556c-0.036-0.899-0.444-1.125-1.225-0.674l-0.917,0.529
					v4.561l0.962-0.556c0.757-0.436,1.149-1.124,1.18-2.061c0.006-0.171,0.009-0.331,0.009-0.479c0-0.148,0-0.293,0-0.432
					c0-0.141,0-0.283,0-0.426C122.004,337.874,122.001,337.72,121.995,337.556z"/>
				<path style="fill:#FFFFFF;" d="M127.772,330.919c0.415-0.239,0.793-0.375,1.135-0.408c0.342-0.034,0.638,0.025,0.886,0.178
					c0.25,0.152,0.444,0.395,0.586,0.725c0.141,0.33,0.221,0.734,0.238,1.213c0.006,0.164,0.009,0.316,0.009,0.456
					c0,0.14,0,0.274,0,0.401c0,0.129,0,0.261,0,0.396c0,0.136-0.003,0.286-0.009,0.449c-0.018,0.507-0.096,1.003-0.234,1.491
					c-0.138,0.487-0.328,0.95-0.571,1.386c-0.243,0.438-0.532,0.834-0.868,1.191c-0.337,0.358-0.711,0.656-1.125,0.895l-2.431,1.403
					c-0.065,0.038-0.122,0.039-0.171,0.003c-0.048-0.036-0.071-0.099-0.071-0.186v-7.752c0-0.088,0.023-0.178,0.071-0.27
					c0.049-0.092,0.105-0.157,0.171-0.195L127.772,330.919z M128.952,333.539c-0.036-0.899-0.444-1.124-1.225-0.675l-0.917,0.53
					v4.561l0.962-0.556c0.757-0.436,1.149-1.123,1.18-2.061c0.006-0.172,0.009-0.332,0.009-0.48c0-0.147,0-0.291,0-0.432
					c0-0.139,0-0.281,0-0.426C128.961,333.856,128.958,333.704,128.952,333.539z"/>
				<path style="fill:#FFFFFF;" d="M138.87,324.512c0.066-0.038,0.123-0.038,0.171-0.002c0.049,0.036,0.072,0.099,0.072,0.187v1.271
					c0,0.088-0.023,0.178-0.072,0.27c-0.048,0.092-0.105,0.156-0.171,0.194l-1.584,0.915v6.156c0,0.088-0.024,0.178-0.071,0.27
					c-0.049,0.092-0.105,0.156-0.171,0.194l-1.18,0.681c-0.066,0.039-0.123,0.039-0.171,0.004c-0.049-0.037-0.072-0.1-0.072-0.188
					v-6.156l-1.584,0.914c-0.066,0.039-0.123,0.04-0.171,0.004c-0.048-0.036-0.072-0.099-0.072-0.187v-1.272
					c0-0.088,0.024-0.178,0.072-0.27c0.048-0.092,0.105-0.156,0.171-0.195L138.87,324.512z"/>
				<path style="fill:#FFFFFF;" d="M140.057,326.959c0.018-0.458,0.092-0.923,0.221-1.394c0.129-0.471,0.313-0.92,0.549-1.35
					c0.237-0.429,0.525-0.826,0.864-1.194c0.339-0.367,0.73-0.679,1.174-0.936c0.438-0.253,0.828-0.392,1.171-0.418
					c0.342-0.025,0.631,0.039,0.868,0.194c0.237,0.156,0.42,0.395,0.549,0.715c0.129,0.322,0.202,0.701,0.221,1.139
					c0.013,0.338,0.019,0.694,0.019,1.069c0,0.377-0.006,0.732-0.019,1.067c-0.019,0.459-0.092,0.923-0.221,1.393
					c-0.129,0.471-0.311,0.922-0.549,1.355c-0.237,0.433-0.526,0.832-0.868,1.197c-0.343,0.365-0.732,0.675-1.171,0.928
					c-0.443,0.256-0.835,0.398-1.174,0.426c-0.339,0.027-0.627-0.038-0.864-0.197c-0.236-0.159-0.42-0.398-0.549-0.721
					c-0.129-0.321-0.203-0.701-0.221-1.139c-0.012-0.321-0.018-0.67-0.018-1.047C140.04,327.673,140.046,327.309,140.057,326.959z
					 M144.009,326.753c0.006-0.147,0.012-0.311,0.017-0.49c0.007-0.179,0.01-0.361,0.01-0.545c0-0.184-0.003-0.36-0.01-0.529
					c-0.006-0.168-0.012-0.318-0.017-0.451c-0.012-0.193-0.044-0.358-0.095-0.497c-0.051-0.139-0.122-0.243-0.216-0.314
					c-0.093-0.07-0.208-0.102-0.347-0.094c-0.138,0.007-0.3,0.065-0.486,0.173c-0.186,0.107-0.348,0.235-0.485,0.388
					c-0.139,0.152-0.253,0.316-0.347,0.494c-0.093,0.178-0.165,0.365-0.216,0.563c-0.051,0.198-0.082,0.4-0.095,0.607
					c-0.012,0.143-0.02,0.301-0.022,0.475c-0.003,0.174-0.004,0.353-0.004,0.537c0,0.184,0.001,0.363,0.004,0.537
					c0.003,0.174,0.011,0.33,0.022,0.467c0.024,0.387,0.128,0.658,0.311,0.816c0.183,0.159,0.46,0.131,0.832-0.084
					c0.372-0.215,0.649-0.506,0.828-0.875C143.874,327.563,143.978,327.171,144.009,326.753z"/>
				<path style="fill:#FFFFFF;" d="M149.777,326.614c-0.065,0.039-0.122,0.039-0.17,0.004c-0.049-0.037-0.072-0.1-0.072-0.188
					v-7.752c0-0.088,0.023-0.178,0.072-0.27c0.048-0.092,0.105-0.156,0.17-0.195l2.898-1.673c0.402-0.232,0.741-0.353,1.017-0.364
					c0.276-0.012,0.497,0.053,0.662,0.193c0.165,0.141,0.284,0.341,0.355,0.6c0.072,0.258,0.108,0.535,0.108,0.83
					c0,0.232-0.02,0.446-0.059,0.641c-0.039,0.195-0.086,0.37-0.14,0.525c-0.054,0.154-0.109,0.287-0.166,0.396
					c-0.058,0.109-0.105,0.194-0.14,0.255c0.233,0.08,0.398,0.236,0.49,0.467c0.093,0.23,0.14,0.545,0.14,0.945
					c0,0.328-0.036,0.668-0.108,1.022c-0.071,0.353-0.19,0.7-0.355,1.039c-0.165,0.34-0.379,0.659-0.643,0.96
					c-0.265,0.3-0.588,0.56-0.973,0.783L149.777,326.614z M153.143,318.815c0-0.207-0.046-0.347-0.14-0.417
					c-0.093-0.07-0.228-0.054-0.409,0.05l-1.395,0.805v1.369l1.395-0.806c0.181-0.105,0.316-0.244,0.409-0.423
					C153.097,319.216,153.143,319.024,153.143,318.815z M151.2,323.932l1.485-0.857c0.179-0.104,0.324-0.256,0.432-0.459
					c0.107-0.201,0.162-0.406,0.162-0.615c0-0.207-0.055-0.35-0.162-0.428c-0.107-0.078-0.253-0.064-0.432,0.039l-1.485,0.857
					V323.932z"/>
				<path style="fill:#FFFFFF;" d="M159.596,312.546c0.12-0.07,0.212-0.078,0.274-0.026c0.063,0.052,0.107,0.114,0.131,0.188
					l1.962,6.427c0.024,0.066,0.036,0.12,0.036,0.159c0,0.072-0.02,0.146-0.058,0.22c-0.04,0.075-0.087,0.128-0.14,0.159
					l-1.135,0.654c-0.12,0.069-0.205,0.084-0.257,0.047c-0.051-0.039-0.082-0.088-0.094-0.145l-0.252-0.85l-2.395,1.382
					l-0.252,1.142c-0.012,0.07-0.043,0.154-0.095,0.253c-0.051,0.097-0.136,0.181-0.256,0.249l-1.135,0.655
					c-0.054,0.031-0.101,0.032-0.14,0.003c-0.038-0.029-0.058-0.081-0.058-0.152c0-0.04,0.012-0.107,0.036-0.201l1.962-8.693
					c0.023-0.102,0.066-0.214,0.13-0.338c0.063-0.125,0.154-0.223,0.274-0.291L159.596,312.546z M158.138,318.632l1.458-0.842
					l-0.729-2.459L158.138,318.632z"/>
				<path style="fill:#FFFFFF;" d="M165.609,310.876c-0.204,0.117-0.375,0.254-0.513,0.408c-0.139,0.156-0.251,0.324-0.339,0.502
					c-0.086,0.178-0.151,0.363-0.192,0.555c-0.042,0.193-0.072,0.387-0.091,0.581c-0.012,0.111-0.02,0.259-0.021,0.444
					c-0.004,0.187-0.005,0.377-0.005,0.573s0.003,0.386,0.009,0.571c0.006,0.184,0.012,0.326,0.018,0.427
					c0.012,0.178,0.041,0.337,0.086,0.479c0.045,0.141,0.111,0.252,0.197,0.33c0.088,0.077,0.201,0.113,0.343,0.108
					c0.141-0.005,0.311-0.065,0.509-0.18c0.156-0.09,0.303-0.199,0.441-0.326c0.138-0.128,0.258-0.273,0.359-0.436
					c0.103-0.164,0.184-0.346,0.243-0.549c0.06-0.202,0.09-0.424,0.09-0.664l-0.756,0.436c-0.066,0.038-0.123,0.038-0.171,0.003
					c-0.049-0.037-0.072-0.098-0.072-0.188v-1.271c0-0.088,0.023-0.178,0.072-0.27c0.048-0.092,0.105-0.156,0.171-0.194l2.178-1.257
					c0.065-0.039,0.123-0.039,0.172-0.004c0.047,0.037,0.071,0.1,0.071,0.188v1.535c0,0.512-0.071,1.014-0.217,1.506
					c-0.144,0.49-0.341,0.951-0.594,1.381c-0.252,0.43-0.548,0.818-0.886,1.164c-0.339,0.349-0.707,0.637-1.103,0.865
					c-0.433,0.25-0.818,0.387-1.156,0.41c-0.34,0.023-0.63-0.043-0.869-0.201c-0.24-0.157-0.424-0.397-0.554-0.719
					c-0.129-0.322-0.202-0.697-0.22-1.127c-0.013-0.32-0.019-0.668-0.019-1.045c0-0.375,0.006-0.739,0.019-1.09
					c0.012-0.447,0.084-0.907,0.216-1.38c0.132-0.472,0.316-0.924,0.553-1.356c0.237-0.434,0.527-0.834,0.869-1.203
					c0.342-0.369,0.729-0.679,1.161-0.928c0.42-0.243,0.798-0.379,1.134-0.41c0.336-0.029,0.621,0.014,0.854,0.131
					c0.234,0.116,0.417,0.287,0.55,0.511c0.132,0.224,0.203,0.468,0.216,0.733c0.006,0.068-0.013,0.141-0.054,0.217
					c-0.042,0.077-0.091,0.131-0.145,0.162l-1.197,0.69c-0.089,0.052-0.16,0.057-0.211,0.015c-0.051-0.043-0.101-0.086-0.149-0.131
					c-0.083-0.096-0.197-0.161-0.341-0.198C166.122,310.638,165.903,310.706,165.609,310.876z"/>
			</g>
		</g>
		<g id="XMLID_638_">
			<path id="XMLID_661_" style="fill:#263238;" d="M192.051,250.363c-0.564-0.326-1.509-0.308-2.11,0.039l-32.552,18.794
				c-0.601,0.347-1.089,1.192-1.089,1.886l0,7.28c0,0.695,0.457,1.521,1.021,1.847c0.564,0.326,1.509,0.308,2.11-0.039
				l32.552-18.794c0.601-0.347,1.089-1.192,1.089-1.886l0-7.28C193.072,251.515,192.615,250.688,192.051,250.363z"/>
			<path id="XMLID_3036_" style="fill:#455A64;" d="M193.058,252.013c-0.087-0.55-0.534-0.743-1.074-0.431l-13.57,7.833
				l-18.982,10.959c-0.299,0.174-0.572,0.473-0.772,0.814l-2.042-1.18c0.196-0.341,0.469-0.64,0.768-0.814l32.555-18.792
				c0.601-0.347,1.544-0.367,2.109-0.039C192.563,250.659,192.987,251.367,193.058,252.013z"/>
			<path id="XMLID_660_" style="fill:#37474F;" d="M158.342,272.261v7.28c0,0.695,0.488,0.976,1.089,0.629l32.552-18.794
				c0.601-0.347,1.089-1.192,1.089-1.886l0-7.28c0-0.694-0.488-0.976-1.089-0.629l-32.552,18.794
				C158.83,270.723,158.342,271.567,158.342,272.261z"/>
			<g id="stars_4_">
				<path id="XMLID_651_" style="fill:#27DEBF;" d="M163.876,269.905l0.532,1.13c0.034,0.071,0.098,0.097,0.173,0.068l1.189-0.456
					c0.189-0.072,0.264,0.194,0.128,0.45l-0.86,1.615c-0.054,0.102-0.079,0.218-0.066,0.31l0.203,1.462
					c0.032,0.232-0.165,0.537-0.334,0.516l-1.063-0.132c-0.067-0.008-0.147,0.038-0.214,0.124l-1.063,1.359
					c-0.169,0.216-0.366,0.139-0.334-0.131l0.203-1.696c0.013-0.107-0.012-0.194-0.066-0.233l-0.86-0.622
					c-0.137-0.099-0.061-0.452,0.128-0.597l1.189-0.917c0.075-0.058,0.14-0.158,0.173-0.268l0.532-1.743
					C163.548,269.866,163.792,269.725,163.876,269.905z"/>
				<path id="XMLID_650_" style="fill:#27DEBF;" d="M169.895,266.459l0.532,1.129c0.033,0.071,0.098,0.097,0.173,0.068l1.189-0.456
					c0.189-0.073,0.264,0.193,0.128,0.45l-0.86,1.615c-0.054,0.102-0.079,0.218-0.066,0.31l0.203,1.462
					c0.032,0.232-0.165,0.537-0.334,0.517l-1.063-0.132c-0.067-0.008-0.147,0.038-0.214,0.124l-1.063,1.359
					c-0.169,0.216-0.366,0.139-0.334-0.131l0.203-1.696c0.013-0.107-0.012-0.194-0.066-0.233l-0.86-0.621
					c-0.137-0.099-0.061-0.452,0.128-0.597l1.189-0.917c0.075-0.058,0.14-0.158,0.173-0.268l0.532-1.744
					C169.566,266.42,169.81,266.279,169.895,266.459z"/>
				<path id="XMLID_648_" style="fill:#27DEBF;" d="M175.914,263.013l0.532,1.13c0.034,0.071,0.098,0.097,0.173,0.068l1.189-0.456
					c0.189-0.072,0.264,0.193,0.128,0.45l-0.86,1.615c-0.054,0.102-0.079,0.218-0.066,0.31l0.203,1.462
					c0.032,0.232-0.165,0.537-0.334,0.517l-1.064-0.131c-0.067-0.008-0.147,0.038-0.214,0.124l-1.064,1.359
					c-0.169,0.216-0.366,0.139-0.334-0.131l0.203-1.696c0.013-0.107-0.012-0.194-0.066-0.234l-0.86-0.621
					c-0.137-0.099-0.061-0.452,0.128-0.597l1.189-0.917c0.075-0.058,0.14-0.158,0.173-0.268l0.532-1.743
					C175.585,262.974,175.829,262.833,175.914,263.013z"/>
				<path id="XMLID_640_" style="fill:#27DEBF;" d="M181.932,259.567l0.532,1.13c0.034,0.071,0.098,0.097,0.173,0.068l1.189-0.456
					c0.189-0.072,0.264,0.194,0.128,0.45l-0.86,1.615c-0.054,0.102-0.079,0.218-0.066,0.31l0.203,1.462
					c0.032,0.232-0.165,0.537-0.334,0.516l-1.063-0.132c-0.067-0.008-0.147,0.038-0.214,0.124l-1.064,1.359
					c-0.169,0.216-0.366,0.139-0.334-0.131l0.203-1.696c0.013-0.107-0.012-0.194-0.066-0.233l-0.86-0.622
					c-0.137-0.099-0.061-0.452,0.128-0.597l1.189-0.917c0.075-0.058,0.14-0.158,0.173-0.268l0.532-1.743
					C181.604,259.528,181.848,259.387,181.932,259.567z"/>
				<path id="XMLID_639_" style="fill:#27DEBF;" d="M187.951,256.121l0.532,1.129c0.034,0.071,0.098,0.097,0.173,0.068l1.189-0.456
					c0.189-0.073,0.264,0.193,0.128,0.45l-0.86,1.615c-0.054,0.102-0.079,0.218-0.066,0.31l0.203,1.462
					c0.032,0.232-0.165,0.537-0.334,0.516l-1.063-0.131c-0.067-0.008-0.147,0.038-0.214,0.124l-1.063,1.359
					c-0.169,0.216-0.366,0.139-0.334-0.131l0.203-1.696c0.013-0.107-0.012-0.194-0.066-0.233l-0.86-0.621
					c-0.137-0.099-0.061-0.452,0.128-0.597l1.189-0.917c0.075-0.058,0.14-0.158,0.173-0.268l0.532-1.744
					C187.623,256.082,187.867,255.941,187.951,256.121z"/>
			</g>
		</g>
		<g>
			<g id="heart_box_1_">
				<path id="XMLID_561_" style="fill:#E0E0E0;" d="M191.342,287.901c-0.955-0.552-2.556-0.522-3.574,0.066l-10.152,5.861
					c-1.019,0.588-1.844,2.018-1.844,3.194v11.722c0,1.176,0.775,2.577,1.73,3.128c0.955,0.552,2.556,0.522,3.574-0.066
					l10.152-5.861c1.018-0.588,1.844-2.018,1.844-3.194l0-11.722C193.072,289.854,192.298,288.453,191.342,287.901z"/>
				<path id="XMLID_557_" style="fill:#FFFFFF;" d="M181.076,295.826l10.152-5.861c1.019-0.588,1.844-0.111,1.844,1.065l0,11.722
					c0,1.176-0.826,2.606-1.844,3.194l-10.152,5.861c-1.019,0.588-1.844,0.111-1.844-1.065l0-11.722
					C179.232,297.844,180.058,296.414,181.076,295.826z"/>
				<path style="fill:#F0F0F0;" d="M193.051,290.733c-0.13-0.96-0.89-1.31-1.82-0.77l-10.15,5.86c-0.51,0.29-0.97,0.8-1.31,1.38
					l-3.46-2c0.34-0.58,0.8-1.08,1.31-1.37l10.15-5.87c1.02-0.58,2.62-0.61,3.57-0.06
					C192.22,288.403,192.94,289.623,193.051,290.733z"/>
			</g>
			<path id="XMLID_1463_" style="fill:#27DEBF;" d="M181.445,302.251c-0.004-0.924,0.218-1.895,0.584-2.754l-0.002-0.002
				l0.008-0.018c0.429-0.995,1.058-1.835,1.757-2.247c1.201-0.709,2.202,0.729,2.36,2.423c0.142-1.871,1.126-4.475,2.327-5.178
				c0.7-0.411,1.333-0.313,1.768,0.174l0.008,0.009l-0.002,0.004c0.372,0.424,0.601,1.13,0.605,2.055
				c0.013,2.865-1.71,5.464-3.152,8.196l-1.556,2.641l-1.5-0.845C183.194,305.682,181.457,305.116,181.445,302.251z"/>
		</g>
	</g>
</g>
<g id="Character">
	<g id="Character_1_">
		<g id="XMLID_1296_">
			<g id="XMLID_1297_">
				<polygon id="XMLID_1298_" style="fill:#FFA8A7;" points="280.825,207.458 282.413,224.003 297.201,223.084 296.017,204.735 				
					"/>
			</g>
		</g>
		<g id="XMLID_1286_">
			<g id="XMLID_1294_">
				<path id="XMLID_1295_" style="fill:#263238;" d="M262.352,175.544c-0.175-0.801-0.266-1.62-0.262-2.442
					c0.005-0.974,0.14-1.975,0.623-2.821c1.218-2.136,3.565-2.136,5.706-2.107c4.235,0.058,8.513-0.497,12.472-2.003
					c1.642-0.625,3.22-1.409,4.872-2.007c4.166-1.507,8.955-1.741,12.933,0.209c2.841,1.393,5.144,4.032,5.983,7.1
					c0.4,1.462,0.23,2.939,0.513,4.404c0.348,1.803,1.106,3.496,1.437,5.302c0.357,1.946,0.473,3.928,0.55,5.902
					c0.318,8.168-18.641,13.479-18.266,19.079c-3.369-4.099-6.738-8.198-10.107-12.298c0-0.511-1.427-1.785-1.75-2.217
					c-0.605-0.81-1.143-1.68-1.7-2.528c-1.039-1.581-2.404-2.882-3.983-3.917c-1.493-0.978-3.197-1.598-4.613-2.69
					C264.543,180.801,262.951,178.28,262.352,175.544z"/>
			</g>
			<g id="XMLID_1292_">
				<path id="XMLID_1293_" style="fill:#F28F8F;" d="M269.855,189.302c0,0-3.275,4.866-2.847,5.38
					c0.427,0.515,2.509,1.063,2.509,1.063L269.855,189.302z"/>
			</g>
			<g id="XMLID_1290_">
				<path id="XMLID_1291_" style="fill:#FFA8A7;" d="M279.862,173.885c-3.184,1.616-8.685,4.604-10.1,16.129
					c-1.452,11.831,1.228,15.942,2.869,17.493c1.108,1.046,6.824,1.426,9.806,0.517c3.731-1.139,11.813-5.064,15.602-11.17
					c4.457-7.184,5.378-16.76,0.233-20.514C291.031,171.056,282.556,172.517,279.862,173.885z"/>
			</g>
			<path style="fill:#F28F8F;" d="M272.937,207.718c1.34,0.738,5.141,1.044,7.974,0.63l-0.086-2.125c0,0-1.584,0.734-3.773,1.229
				C274.876,207.945,272.961,207.721,272.937,207.718z"/>
			<g id="XMLID_1288_">
				<path id="XMLID_1289_" style="fill:#263238;" d="M278.465,173.534c-1.308,0.558-2.567,1.108-3.704,2.133
					c-0.533,0.48-1.028,1.025-1.311,1.684c-0.256,0.595-0.326,1.26-0.266,1.905c0.163,1.768,1.347,3.405,2.975,4.114
					c-0.859,1.162-1.163,2.718-0.802,4.117c0.431,1.672,1.698,2.979,2.917,4.203c0.071,0.072,0.146,0.146,0.242,0.176
					c0.18,0.057,0.367-0.053,0.524-0.158c1.999-1.337,3.233-3.646,6.061-2.718c3.709,1.217,3.912,4.815,1.717,8.008
					c-1,1.455-2.114,2.229-3.462,2.4c-1.517,0.193-2.312-0.658-2.312-0.658s0.612,6.843,5.805,9.207c0,0,6.087,1.386,9.328-0.729
					c1.956-2.483,5.238-5.662,7.94-8.502c8.902-9.355,9.409-22.947-3.716-27.24c-0.453-0.148-0.909-0.283-1.369-0.406
					c-4.197-1.118-8.659-1.179-12.903-0.277c-2.122,0.451-4.194,1.145-6.155,2.074C279.468,173.109,278.963,173.322,278.465,173.534
					z"/>
			</g>
			<path id="XMLID_1287_" style="fill:#263238;" d="M278.043,195.86c-1.455-0.516-2.208-2.094-1.682-3.524
				c0.525-1.43,2.131-2.17,3.585-1.653L278.043,195.86z"/>
			<path id="XMLID_1246_" style="fill:#263238;" d="M304.279,174.316c1.089,0.82,2.618,0.606,3.415-0.477
				c0.797-1.084,0.56-2.627-0.529-3.447L304.279,174.316z"/>
		</g>
		<g id="XMLID_1279_">
			<path id="XMLID_1283_" style="fill:#FFA8A7;" d="M298.796,215.798c11.095,0.624,12.076,2.484,15.361,10.494
				c3.285,8.01,8.498,28.316,9.863,33.668c0.612,2.398-17.596,25.157-16.945,24.84c0.2-0.098-5.927-10.349-5.927-10.349
				l8.185-15.305l-4.887-13.035L298.796,215.798z"/>
		</g>
		<g>
			<g id="XMLID_1051_">
				<g>
					<path style="fill:#FFA8A7;" d="M309.754,286.563c-0.956-8.252-4.362-14.207-4.362-14.207l-17.796,31.875l-3.109,11.256
						c0,0,0.215,25.804,0.609,31.98c0.394,6.176,4.541,56.385,4.541,56.385l0.752,9.909c7.022,1.947,8.492,0.099,8.558-1.431
						c0.066-1.532,0.844-7.648,0.844-7.648s1.613-0.616,1.999-3.237c0.205-1.394-1.247-4.42-0.992-6.574
						c1.318-11.13,4.475-28.085,4.656-31.673c0.525-10.421-3.177-18.292-3.177-18.292
						C303.684,332.023,311.774,303.988,309.754,286.563z"/>
					<path style="fill:#F28F8F;" d="M289.638,403.852l0.752,9.909c7.022,1.947,8.492,0.099,8.558-1.431
						c0.015-0.352,0.069-0.952,0.141-1.659c-1.133,2.541-3.451,1.802-4.778-1.817c-1.327-3.618-7.144-35.16-7.145-35.164
						C288.368,388.473,289.638,403.852,289.638,403.852z"/>
					<g id="XMLID_1052_">
						<path id="XMLID_1083_" style="fill:#27DEBF;" d="M285.519,427.198c0,0,1.068,1.876,6.852-0.556
							c5.785-2.432,7.41-5.319,7.41-5.319s-1.503-11.609-5.083-8.69C291.118,415.553,285.519,427.198,285.519,427.198z"/>
						<path id="XMLID_1072_" style="opacity:0.3;" d="M285.519,427.198c0,0,1.068,1.876,6.852-0.556
							c5.785-2.432,7.41-5.319,7.41-5.319s-1.503-11.609-5.083-8.69C291.118,415.553,285.519,427.198,285.519,427.198z"/>
						<path id="XMLID_1068_" style="fill:#263238;" d="M301.124,398.548c-1.179-0.626-4.326,0.677-6.174,2.27
							c-2.43,2.094-3.019,4.923-4.263,8.25c-1.327,3.549-3.738,8.428-5.685,9.518c-1.947,1.09-5.512,0.084-8.451,0.066
							c-2.939-0.018-5.212,1.33-5.377,3.473c-0.081,1.686,7.556,5.566,12.382,5.764c4.007,0.164,5.372,0.846,7.589-5.017
							c2.216-5.863,3.057-9.163,4.818-5.177c1.761,3.986,2.491,12.956,2.491,12.956s2.411,0.889,3.562-1.487
							c0,0-0.075-4.223,0.43-7.828c0.505-3.605,2.422-9.276,2.174-13.617C304.371,403.376,302.29,399.133,301.124,398.548z"/>
					</g>
					<path style="fill:#FFA8A7;" d="M303.329,273.676l-41.919,12.773c0,0-4.205,45.628-4.094,59.532
						c0.078,9.786,0.591,10.768,2.228,14.468c1.926,4.353,3.605,8.824,5.34,13.255c2.689,6.868,13.352,32.585,13.028,36.091
						c-0.223,2.412-2.848,9.074-4.188,13.377c-1.34,4.302-4.771,4.44-4.771,4.44s5.413,3.724,8.654,2.94
						c2.412-0.583,3.148-3.628,3.987-5.605c1.167-2.748,3.305-4.578,5.896-6.003c1.053-0.579,2.14-1.112,3.09-1.848
						c0.95-0.735,1.769-1.707,2.071-2.87c0.458-1.766-0.331-3.591-1.102-5.244c-0.435-0.932-0.869-1.864-1.303-2.796
						c-0.372-0.798-1.034-2.334-1.422-4.475c-0.776-4.274-1.393-8.577-2.068-12.868c-0.794-5.049-1.586-10.1-2.458-15.137
						c-0.56-3.236-0.974-6.648-2.017-9.776c-1.964-5.888-5.861-11.775-5.861-11.775l11.178-47.925
						c13.501-4.014,17.915-9.78,19.47-17.984C308.349,279.477,305.854,277.796,303.329,273.676z"/>
					<path style="fill:#37474F;" d="M261.168,365.379c-4.456-9.346-5.679-15.044-3.852-34.637
						c1.827-19.593,3.852-44.956,3.852-44.956l44.79-14.24c3.296,7.752,5.723,18.539,5.239,27.529
						c-0.484,8.99-7.544,45.168-7.544,45.168s1.743,7.475,1.987,10.701c0.317,4.199,0.513,6.081,0.205,10.699
						c-0.307,4.618-2.882,17.19-2.882,17.19s-2.771,1.613-7.086,1.231c-4.315-0.382-8.393-2.582-8.393-2.582
						s-1.233-15.788-1.723-19.341c-0.49-3.553-1.017-9.79-1.273-14.418c-0.335-6.042,0.004-28.036,0.004-28.036l-7.18,31.626
						l3.204,5.808c2.768,5.386,5.114,18.05,5.953,27.112c0,0-1.983,2.236-6.868,3.59c-4.136,1.146-9.231,0.756-9.231,0.756
						S263.107,369.779,261.168,365.379z"/>
				</g>
				<path style="fill:#263238;" d="M284.492,319.687l3.428-14.002c0,0,11.74-1.498,17.925-9.699c0,0-3.976,11.063-15.125,11.851
					l-5.208,11.681l-1.134,10.072L284.492,319.687z"/>
			</g>
			<g id="XMLID_2775_">
				<path id="XMLID_2783_" style="fill:#27DEBF;" d="M275.42,435.733c0,0,1.068,1.876,6.852-0.556
					c5.785-2.432,7.41-5.319,7.41-5.319s-1.503-11.609-5.083-8.69C281.019,424.088,275.42,435.733,275.42,435.733z"/>
				<path id="XMLID_1318_" style="opacity:0.3;" d="M275.42,435.733c0,0,1.068,1.876,6.852-0.556c5.785-2.432,7.41-5.319,7.41-5.319
					s-1.503-11.609-5.083-8.69C281.019,424.088,275.42,435.733,275.42,435.733z"/>
				<path id="XMLID_2776_" style="fill:#263238;" d="M291.025,407.083c-1.179-0.626-4.326,0.677-6.174,2.27
					c-2.43,2.094-3.019,4.923-4.263,8.25c-1.327,3.549-3.738,8.428-5.685,9.518c-1.947,1.09-5.512,0.084-8.451,0.066
					c-2.939-0.018-5.212,1.33-5.377,3.473c-0.081,1.686,7.556,5.566,12.382,5.764c4.007,0.164,5.372,0.846,7.589-5.017
					c2.216-5.863,3.057-9.163,4.818-5.177c1.761,3.986,2.491,12.956,2.491,12.956s2.411,0.89,3.561-1.487
					c0,0-0.074-4.223,0.43-7.828c0.505-3.605,2.422-9.276,2.174-13.617C294.272,411.912,292.192,407.668,291.025,407.083z"/>
			</g>
		</g>
		<g>
			<path id="XMLID_1050_" style="fill:#455A64;" d="M307.414,221.939c-1.175-4.22-2.804-6.141-8.066-6.108l-2.625-0.156
				c-0.324,2.036-11.166,2.612-15.139-0.311c-1.128-0.055-5.109,0.216-7.4,0.435l-0.691,1.824c-2.042,2.426-9.21,6.443-14.566,21.71
				c-0.837,2.387-0.866,8.363,4.852,11.76c-0.137,3.379,0.152,3.319,2.919,14.3l-5.419,17.443c0,0,10.176,6.175,26.829,4.888
				c14.902-1.152,21.937-9.516,21.367-8.425c0,0-2.572-4.811-7.375-15.952l1.102-4.908l1.743-7.516
				C309.098,234.935,308.98,227.56,307.414,221.939z"/>
		</g>
		<g id="XMLID_855_">
			<g id="XMLID_1087_">
				<path id="XMLID_1148_" style="fill:#27DEBF;" d="M303.362,262.489c-3.523,5.024-25.345,10.564-36.807,3.047
					c0,0-18.2,26.153-21.13,49.62c0,0,14.455,17.584,47.815,13.474c24.341-2.998,32.622-18.172,32.622-18.172
					s-2.275-15.247-10.868-30.768C311.905,274.107,304.883,267.663,303.362,262.489z"/>
				<path id="XMLID_1145_" style="opacity:0.1;" d="M303.362,262.489c-3.523,5.024-25.345,10.564-36.807,3.047
					c0,0-18.2,26.153-21.13,49.62c0,0,14.455,17.584,47.815,13.474c24.341-2.998,32.622-18.172,32.622-18.172
					s-2.275-15.247-10.868-30.768C311.905,274.107,304.883,267.663,303.362,262.489z"/>
				<path id="XMLID_1139_" style="fill:#27DEBF;" d="M309.482,325.631l-2.279-0.517c0,0-2.25-31.013-14.984-58.113l1.59-0.392
					c0,0,9.418,17.063,14.302,33.566C312.994,316.679,309.482,325.631,309.482,325.631z"/>
				<path id="XMLID_1130_" style="opacity:0.2;" d="M309.482,325.631l-2.279-0.517c0,0-2.25-31.013-14.984-58.113l1.59-0.392
					c0,0,9.418,17.063,14.302,33.566C312.994,316.679,309.482,325.631,309.482,325.631z"/>
				<path id="XMLID_1100_" style="fill:#27DEBF;" d="M271.336,330.92l1.712-2.438c0,0-0.553-43.424,3.602-60.355l-1.098-0.118
					C275.552,268.009,268.071,291.636,271.336,330.92z"/>
				<path id="XMLID_1098_" style="opacity:0.2;" d="M271.336,330.92l1.712-2.438c0,0-0.553-43.424,3.602-60.355l-1.098-0.118
					C275.552,268.009,268.071,291.636,271.336,330.92z"/>
				<path id="XMLID_1095_" style="fill:#27DEBF;" d="M271.289,328.176c0.028,1.753,0.047,2.744,0.047,2.744
					c-17.206-2.02-20.432-8.136-20.432-8.136c0.141-0.857,0.282-1.705,0.432-2.562c5.177-28.849,18.438-53.525,18.438-53.525
					c1.802,0.625,3.759,1.054,5.776,1.311l0.009,0C271.047,281.914,271.157,317.954,271.289,328.176z"/>
				<path id="XMLID_1091_" style="opacity:0.3;fill:#27DEBF;" d="M271.289,328.176c0.028,1.753,0.047,2.744,0.047,2.744
					c-17.206-2.02-20.432-8.136-20.432-8.136c0.141-0.857,0.282-1.705,0.432-2.562c5.177-28.849,18.438-53.525,18.438-53.525
					c1.802,0.625,3.759,1.054,5.776,1.311l0.009,0C271.047,281.914,271.157,317.954,271.289,328.176z"/>
				<path id="XMLID_1089_" style="fill:#27DEBF;" d="M299.111,328.84c-9.858,4.484-20.337,2.351-20.337,2.351
					c-0.03-0.698-0.059-1.396-0.08-2.094c-0.965-27.688,2.965-55.014,3.854-60.806c1.754-0.065,3.494-0.231,5.181-0.463
					c8.082,21.618,10.802,53.25,11.297,59.798C299.08,328.417,299.111,328.84,299.111,328.84z"/>
				<path id="XMLID_1088_" style="fill:#27DEBF;" d="M323.028,316.806c-5.471,5.918-13.547,8.826-13.547,8.826
					c-0.019-0.487-0.047-0.983-0.075-1.47c-1.475-24.744-14.074-54.075-15.598-57.552c1.797-0.476,3.44-1.031,4.865-1.63
					c13.963,10.982,21.966,41.604,23.897,49.791C322.871,316.075,323.028,316.806,323.028,316.806z"/>
			</g>
			<path id="XMLID_1085_" style="fill:#37474F;" d="M265.482,260.642c0.311,1.571,0.669,3.867,1.022,4.971
				c0,0,6.708,4.024,18.069,3.519c11.36-0.505,17.639-3.366,18.789-6.644l-0.161-4.051
				C297.872,264.908,277.613,267.963,265.482,260.642z"/>
		</g>
		<g id="XMLID_1239_">
			<g id="XMLID_2839_">
				<path id="XMLID_2916_" style="fill:#FFA8A7;" d="M232.031,240.489c-2.065-2.36-2.409-7.573-5.162-11.159
					c-2.689-3.503-2.251-7.202-3.978-5.592c-1.847,1.72-0.437,7.489-0.437,7.489s-3.205,5.946-3.477,8.989
					c-0.272,3.043,7.782,10.687,7.782,10.687L232.031,240.489z"/>
			</g>
			<g id="XMLID_2782_">
				<path id="XMLID_2784_" style="fill:#FFA8A7;" d="M222.892,230.819c-1.543,2.239-6.623-1.424-7.98-2.456
					c-0.865-0.657-1.741-1.348-2.78-1.667c-1.039-0.319-2.298-0.18-3.016,0.636c-0.424,0.482-0.605,1.128-0.73,1.758
					c-0.793,4.017,0.433,8.313,3.003,11.466c3.117,3.824,8.205,4.363,12.184,7.057c-0.228-0.155-0.081-2.309-0.092-2.586
					c-0.076-1.908-0.155-3.816-0.234-5.724C223.13,236.475,222.985,233.645,222.892,230.819z"/>
			</g>
			<g id="XMLID_2401_">
				<path id="XMLID_2779_" style="fill:#FFA8A7;" d="M274.184,215.798c-6.492-0.448-12.459,0.508-16.625,8.909
					c-4.746,9.57-14.157,28.092-14.157,28.092l-11.371-12.31c0,0-1.655-2.332-4.733,2.754c-3.078,5.086-1.718,6.493-1.718,6.493
					s13.23,17.721,15.659,19.976c2.428,2.255,6.418,0.502,9.02-3.045c2.602-3.547,16.856-28.102,16.856-28.102
					S277.289,226.058,274.184,215.798z"/>
			</g>
		</g>
		<g id="XMLID_3010_">
			<path id="XMLID_3044_" style="fill:#263238;" d="M255.601,271.712l-3.282-1.892c0,0-0.021-2.916-0.554-5.477
				c0.648-1.066,1.432-2.383,2.289-3.857C255.756,266.547,255.601,271.712,255.601,271.712z"/>
			<path id="XMLID_3027_" style="fill:#37474F;" d="M255.729,272.761l-0.13-1.049c-0.014,0.01-0.051,0.033-0.108,0.068
				c-0.011-0.044-0.017-0.068-0.017-0.068l-3.277-1.892c-0.423,1.224-0.932,2.875-1.46,4.725
				c-6.735,3.892-18.076,10.409-18.076,10.409l3.482,26.343l22.732-13.198l0-0.004c0.412-0.224,0.743-0.597,0.946-1.173
				C260.784,294.191,256.791,277.171,255.729,272.761z"/>
			<polygon id="XMLID_3009_" style="fill:#455A64;" points="255.598,271.712 232.661,284.955 229.384,283.063 252.322,269.82 			"/>
			<polygon id="XMLID_1048_" style="opacity:0.1;fill:#FFFFFF;" points="255.598,271.712 232.661,284.955 229.384,283.063 
				252.322,269.82 			"/>
			<path id="XMLID_3011_" style="opacity:0.2;" d="M233.997,290.631c0,0-0.136,0.607,2.093,1.087
				c2.229,0.481,11.493,0.364,12.717-0.364c1.224-0.728,4.501-4.749,5.987-7.458c1.486-2.71,2.318-5.162,2.318-5.162
				L233.997,290.631z"/>
			<path id="XMLID_1053_" style="fill:#263238;" d="M229.384,283.063c-1.907,5.514-5.542,19.688-4.995,21.803
				c0.547,2.115,3.344,3.73,4.996,4.683s6.516,3.762,7.624,0.618c1.108-3.144-4.347-25.212-4.347-25.212L229.384,283.063z"/>
			<path id="XMLID_2905_" style="fill:#455A64;" d="M232.661,284.955c0.031,0.325,0.494,4.36,1.336,5.676
				c0.843,1.315,12.102,0.537,14.028,0s8.842-10.37,9.088-11.898c0.246-1.528-1.514-7.021-1.514-7.021L232.661,284.955z"/>
			<path id="XMLID_2840_" style="fill:#27DEBF;" d="M247.597,288.586c0.055,0.491,0.422,0.652,0.82,0.358
				c0.398-0.293,0.676-0.929,0.621-1.42c-0.055-0.491-0.422-0.652-0.82-0.358C247.82,287.459,247.542,288.095,247.597,288.586z"/>
			<path id="XMLID_2971_" style="fill:#263238;" d="M244.513,250.608c-12.037,2.087-15.129,32.455-15.129,32.455l3.277,1.892
				c0.591-17.956,8.148-30.597,10.807-32.161L244.513,250.608z"/>
		</g>
	</g>
</g>
</svg>
